<svg version="1.1" viewBox="0.0 0.0 600.0 371.0" fill="none" stroke="none" stroke-linecap="square" stroke-miterlimit="10" width="600" height="371" xmlns:xlink="http://www.w3.org/1999/xlink" xmlns="http://www.w3.org/2000/svg"><path fill="#ffffff" d="M0 0L600.0 0L600.0 371.0L0 371.0L0 0Z" fill-rule="nonzero"/><path stroke="#333333" stroke-width="1.0" stroke-linecap="butt" d="M90.5 54.5L90.5 300.5" fill-rule="nonzero"/><path stroke="#cccccc" stroke-width="1.0" stroke-linecap="butt" d="M187.5 54.5L187.5 300.5" fill-rule="nonzero"/><path stroke="#cccccc" stroke-width="1.0" stroke-linecap="butt" d="M283.5 54.5L283.5 300.5" fill-rule="nonzero"/><path stroke="#cccccc" stroke-width="1.0" stroke-linecap="butt" d="M380.5 54.5L380.5 300.5" fill-rule="nonzero"/><path stroke="#cccccc" stroke-width="1.0" stroke-linecap="butt" d="M476.5 54.5L476.5 300.5" fill-rule="nonzero"/><clipPath id="id_0"><path d="M90.55 54.916668L476.61444 54.916668L476.61444 300.45L90.55 300.45L90.55 54.916668Z" clip-rule="nonzero"/></clipPath><path stroke="#000000" stroke-width="2.0" stroke-linecap="butt" stroke-opacity="0.0" clip-path="url(#id_0)" d="M91.0 159.0L91.0 91.0L215.0 91.0L215.0 159.0Z" fill-rule="nonzero"/><path fill="#4285f4" clip-path="url(#id_0)" d="M91.0 159.0L91.0 91.0L215.0 91.0L215.0 159.0Z" fill-rule="nonzero"/><path stroke="#000000" stroke-width="2.0" stroke-linecap="butt" stroke-opacity="0.0" clip-path="url(#id_0)" d="M91.0 264.0L91.0 196.0L242.0 196.0L242.0 264.0Z" fill-rule="nonzero"/><path fill="#4285f4" clip-path="url(#id_0)" d="M91.0 264.0L91.0 196.0L242.0 196.0L242.0 264.0Z" fill-rule="nonzero"/><path stroke="#000000" stroke-width="2.0" stroke-linecap="butt" stroke-opacity="0.0" clip-path="url(#id_0)" d="M215.0 159.0L215.0 91.0L250.0 91.0L250.0 159.0Z" fill-rule="nonzero"/><path fill="#ea4335" clip-path="url(#id_0)" d="M215.0 159.0L215.0 91.0L250.0 91.0L250.0 159.0Z" fill-rule="nonzero"/><path stroke="#000000" stroke-width="2.0" stroke-linecap="butt" stroke-opacity="0.0" clip-path="url(#id_0)" d="M242.0 264.0L242.0 196.0L330.0 196.0L330.0 264.0Z" fill-rule="nonzero"/><path fill="#ea4335" clip-path="url(#id_0)" d="M242.0 264.0L242.0 196.0L330.0 196.0L330.0 264.0Z" fill-rule="nonzero"/><path stroke="#000000" stroke-width="2.0" stroke-linecap="butt" stroke-opacity="0.0" clip-path="url(#id_0)" d="M250.0 159.0L250.0 91.0L311.0 91.0L311.0 159.0Z" fill-rule="nonzero"/><path fill="#fbbc04" clip-path="url(#id_0)" d="M250.0 159.0L250.0 91.0L311.0 91.0L311.0 159.0Z" fill-rule="nonzero"/><path stroke="#000000" stroke-width="2.0" stroke-linecap="butt" stroke-opacity="0.0" clip-path="url(#id_0)" d="M330.0 264.0L330.0 196.0L419.0 196.0L419.0 264.0Z" fill-rule="nonzero"/><path fill="#fbbc04" clip-path="url(#id_0)" d="M330.0 264.0L330.0 196.0L419.0 196.0L419.0 264.0Z" fill-rule="nonzero"/><path stroke="#000000" stroke-width="2.0" stroke-linecap="butt" stroke-opacity="0.0" clip-path="url(#id_0)" d="M311.0 159.0L311.0 91.0L417.0 91.0L417.0 159.0Z" fill-rule="nonzero"/><path fill="#34a853" clip-path="url(#id_0)" d="M311.0 159.0L311.0 91.0L417.0 91.0L417.0 159.0Z" fill-rule="nonzero"/><path stroke="#000000" stroke-width="2.0" stroke-linecap="butt" stroke-opacity="0.0" clip-path="url(#id_0)" d="M419.0 264.0L419.0 196.0L443.0 196.0L443.0 264.0Z" fill-rule="nonzero"/><path fill="#34a853" clip-path="url(#id_0)" d="M419.0 264.0L419.0 196.0L443.0 196.0L443.0 264.0Z" fill-rule="nonzero"/><path stroke="#000000" stroke-width="2.0" stroke-linecap="butt" stroke-opacity="0.0" clip-path="url(#id_0)" d="M417.0 159.0L417.0 91.0L475.0 91.0C476.10458 91.0 477.0 91.89543 477.0 93.0L477.0 157.0C477.0 158.10457 476.10458 159.0 475.0 159.0Z" fill-rule="nonzero"/><path fill="#ff6d01" clip-path="url(#id_0)" d="M417.0 159.0L417.0 91.0L475.0 91.0C476.10458 91.0 477.0 91.89543 477.0 93.0L477.0 157.0C477.0 158.10457 476.10458 159.0 475.0 159.0Z" fill-rule="nonzero"/><path stroke="#000000" stroke-width="2.0" stroke-linecap="butt" stroke-opacity="0.0" clip-path="url(#id_0)" d="M443.0 264.0L443.0 196.0L475.0 196.0C476.10458 196.0 477.0 196.89543 477.0 198.0L477.0 262.0C477.0 263.10458 476.10458 264.0 475.0 264.0Z" fill-rule="nonzero"/><path fill="#ff6d01" clip-path="url(#id_0)" d="M443.0 264.0L443.0 196.0L475.0 196.0C476.10458 196.0 477.0 196.89543 477.0 198.0L477.0 262.0C477.0 263.10458 476.10458 264.0 475.0 264.0Z" fill-rule="nonzero"/><path fill="#000000" d="M260.9572 349.45L257.6291 340.85626L258.86346 340.85626L261.09784 347.10626Q261.36346 347.85626 261.55096 348.5125Q261.7541 347.8094 262.0197 347.10626L264.3322 340.85626L265.48846 340.85626L262.1291 349.45L260.9572 349.45ZM269.6291 347.45L270.72284 347.575Q270.47284 348.52814 269.7697 349.0594Q269.0666 349.59064 267.98846 349.59064Q266.6291 349.59064 265.8166 348.7469Q265.0197 347.90314 265.0197 346.3875Q265.0197 344.825 265.8322 343.96564Q266.6447 343.09064 267.92596 343.09064Q269.17596 343.09064 269.9572 343.9344Q270.7541 344.77814 270.7541 346.325Q270.7541 346.41876 270.7541 346.60626L266.11346 346.60626Q266.17596 347.6375 266.6916 348.1844Q267.2072 348.71564 267.98846 348.71564Q268.5666 348.71564 268.97284 348.41876Q269.3947 348.10626 269.6291 347.45ZM266.17596 345.7469L269.6447 345.7469Q269.5822 344.95 269.2541 344.5594Q268.73846 343.95 267.9416 343.95Q267.2072 343.95 266.7072 344.4344Q266.22284 344.91876 266.17596 345.7469ZM272.36346 349.45L272.36346 343.23126L273.3166 343.23126L273.3166 344.16876Q273.67596 343.5125 273.97284 343.3094Q274.28534 343.09064 274.66034 343.09064Q275.1916 343.09064 275.73846 343.41876L275.3791 344.40314Q274.98846 344.16876 274.61346 344.16876Q274.2541 344.16876 273.97284 344.3875Q273.7072 344.59064 273.59784 344.96564Q273.41034 345.52814 273.41034 346.1844L273.41034 349.45L272.36346 349.45ZM280.41034 349.45L280.41034 348.66876Q279.8166 349.59064 278.67596 349.59064Q277.92596 349.59064 277.30096 349.1844Q276.67596 348.7625 276.3322 348.02814Q275.98846 347.29376 275.98846 346.34064Q275.98846 345.41876 276.30096 344.65314Q276.61346 343.8875 277.23846 343.4969Q277.86346 343.09064 278.6291 343.09064Q279.1916 343.09064 279.6291 343.325Q280.0666 343.5594 280.34784 343.9344L280.34784 340.85626L281.3947 340.85626L281.3947 349.45L280.41034 349.45ZM277.0822 346.34064Q277.0822 347.54376 277.5822 348.1375Q278.0822 348.71564 278.7697 348.71564Q279.4572 348.71564 279.9416 348.15314Q280.42596 347.59064 280.42596 346.4344Q280.42596 345.15314 279.92596 344.5594Q279.4416 343.96564 278.72284 343.96564Q278.0197 343.96564 277.55096 344.54376Q277.0822 345.10626 277.0822 346.34064ZM287.6291 347.45L288.72284 347.575Q288.47284 348.52814 287.7697 349.0594Q287.0666 349.59064 285.98846 349.59064Q284.6291 349.59064 283.8166 348.7469Q283.0197 347.90314 283.0197 346.3875Q283.0197 344.825 283.8322 343.96564Q284.6447 343.09064 285.92596 343.09064Q287.17596 343.09064 287.9572 343.9344Q288.7541 344.77814 288.7541 346.325Q288.7541 346.41876 288.7541 346.60626L284.11346 346.60626Q284.17596 347.6375 284.6916 348.1844Q285.2072 348.71564 285.98846 348.71564Q286.5666 348.71564 286.97284 348.41876Q287.3947 348.10626 287.6291 347.45ZM284.17596 345.7469L287.6447 345.7469Q287.5822 344.95 287.2541 344.5594Q286.73846 343.95 285.9416 343.95Q285.2072 343.95 284.7072 344.4344Q284.22284 344.91876 284.17596 345.7469ZM290.34784 349.45L290.34784 340.85626L291.41034 340.85626L291.41034 349.45L290.34784 349.45ZM293.3791 342.075L293.3791 340.85626L294.4416 340.85626L294.4416 342.075L293.3791 342.075ZM293.3791 349.45L293.3791 343.23126L294.4416 343.23126L294.4416 349.45L293.3791 349.45ZM296.3791 349.45L296.3791 343.23126L297.3166 343.23126L297.3166 344.10626Q298.0041 343.09064 299.30096 343.09064Q299.86346 343.09064 300.3322 343.29376Q300.8166 343.4969 301.05096 343.825Q301.28534 344.15314 301.3791 344.59064Q301.42596 344.8875 301.42596 345.6219L301.42596 349.45L300.3791 349.45L300.3791 345.66876Q300.3791 345.0125 300.2541 344.7Q300.1291 344.3875 299.8166 344.2Q299.5041 343.9969 299.0822 343.9969Q298.41034 343.9969 297.91034 344.4344Q297.42596 344.85626 297.42596 346.04376L297.42596 349.45L296.3791 349.45ZM303.17596 349.96564L304.2072 350.1219Q304.2697 350.59064 304.5666 350.8094Q304.9572 351.10626 305.6291 351.10626Q306.36346 351.10626 306.7541 350.8094Q307.16034 350.5125 307.30096 349.9969Q307.3947 349.66876 307.3791 348.6375Q306.6916 349.45 305.66034 349.45Q304.3791 349.45 303.67596 348.52814Q302.97284 347.59064 302.97284 346.3094Q302.97284 345.41876 303.28534 344.66876Q303.61346 343.90314 304.22284 343.4969Q304.8322 343.09064 305.66034 343.09064Q306.7697 343.09064 307.48846 343.98126L307.48846 343.23126L308.4572 343.23126L308.4572 348.60626Q308.4572 350.0594 308.16034 350.66876Q307.86346 351.27814 307.22284 351.6219Q306.5822 351.98126 305.6447 351.98126Q304.53534 351.98126 303.84784 351.48126Q303.16034 350.98126 303.17596 349.96564ZM304.05096 346.23126Q304.05096 347.45 304.53534 348.0125Q305.0197 348.575 305.7541 348.575Q306.48846 348.575 306.97284 348.0125Q307.47284 347.45 307.47284 346.2625Q307.47284 345.1219 306.9572 344.54376Q306.4572 343.96564 305.73846 343.96564Q305.03534 343.96564 304.53534 344.54376Q304.05096 345.10626 304.05096 346.23126Z" fill-rule="nonzero"/><path fill="#000000" d="M26.175013 207.23021L25.175013 207.23021L25.159388 203.60521L28.346888 203.60521Q29.018763 204.43333 29.362513 205.32396Q29.690638 206.21458 29.690638 207.15208Q29.690638 208.41771 29.159388 209.46458Q28.612513 210.49583 27.596888 211.02708Q26.565638 211.54271 25.300013 211.54271Q24.034388 211.54271 22.956263 211.02708Q21.862513 210.49583 21.346888 209.51146Q20.815638 208.52708 20.815638 207.24583Q20.815638 206.30833 21.112513 205.55833Q21.409388 204.80833 21.956263 204.38646Q22.487513 203.94896 23.362513 203.73021L23.643763 204.74583Q22.987513 204.94896 22.612513 205.24583Q22.237513 205.52708 22.018763 206.05833Q21.784388 206.58958 21.784388 207.23021Q21.784388 208.01146 22.018763 208.58958Q22.253138 209.15208 22.643763 209.51146Q23.034388 209.85521 23.503138 210.04271Q24.300013 210.37083 25.221888 210.37083Q26.378138 210.37083 27.159388 209.98021Q27.925013 209.57396 28.300013 208.82396Q28.675013 208.07396 28.675013 207.21458Q28.675013 206.48021 28.393763 205.77708Q28.096888 205.07396 27.784388 204.71458L26.175013 204.71458L26.175013 207.23021ZM27.550013 198.13646L27.675013 197.04271Q28.628138 197.29271 29.159388 197.99583Q29.690638 198.69896 29.690638 199.77708Q29.690638 201.13646 28.846888 201.94896Q28.003138 202.74583 26.487513 202.74583Q24.925013 202.74583 24.065638 201.93333Q23.190638 201.12083 23.190638 199.83958Q23.190638 198.58958 24.034388 197.80833Q24.878138 197.01146 26.425013 197.01146Q26.518763 197.01146 26.706263 197.01146L26.706263 201.65208Q27.737513 201.58958 28.284388 201.07396Q28.815638 200.55833 28.815638 199.77708Q28.815638 199.19896 28.518763 198.79271Q28.206263 198.37083 27.550013 198.13646ZM25.846888 201.58958L25.846888 198.12083Q25.050013 198.18333 24.659388 198.51146Q24.050013 199.02708 24.050013 199.82396Q24.050013 200.55833 24.534388 201.05833Q25.018763 201.54271 25.846888 201.58958ZM27.690638 195.80833L27.534388 194.77708Q28.159388 194.68333 28.487513 194.29271Q28.815638 193.88646 28.815638 193.15208Q28.815638 192.43333 28.534388 192.08958Q28.237513 191.73021 27.831263 191.73021Q27.471888 191.73021 27.268763 192.04271Q27.128138 192.26146 26.909388 193.12083Q26.612513 194.27708 26.409388 194.73021Q26.190638 195.16771 25.815638 195.40208Q25.440638 195.63646 24.971888 195.63646Q24.565638 195.63646 24.206263 195.44896Q23.846888 195.26146 23.612513 194.93333Q23.440638 194.68333 23.315638 194.26146Q23.190638 193.83958 23.190638 193.33958Q23.190638 192.62083 23.409388 192.07396Q23.612513 191.51146 23.971888 191.24583Q24.331263 190.98021 24.925013 190.88646L25.065638 191.91771Q24.596888 191.98021 24.331263 192.32396Q24.050013 192.65208 24.050013 193.27708Q24.050013 193.99583 24.300013 194.30833Q24.534388 194.62083 24.862513 194.62083Q25.065638 194.62083 25.221888 194.49583Q25.393763 194.35521 25.503138 194.08958Q25.565638 193.93333 25.768763 193.15208Q26.081263 192.02708 26.268763 191.58958Q26.456263 191.15208 26.815638 190.90208Q27.175013 190.65208 27.721888 190.65208Q28.253138 190.65208 28.721888 190.96458Q29.175013 191.26146 29.440638 191.83958Q29.690638 192.41771 29.690638 193.15208Q29.690638 194.37083 29.190638 195.01146Q28.675013 195.63646 27.690638 195.80833ZM29.550013 188.41771L20.956263 188.41771L20.956263 187.35521L29.550013 187.35521L29.550013 188.41771ZM28.784388 181.32396Q29.284388 181.91771 29.487513 182.46458Q29.690638 182.99583 29.690638 183.62083Q29.690638 184.65208 29.190638 185.19896Q28.690638 185.74583 27.909388 185.74583Q27.456263 185.74583 27.081263 185.54271Q26.690638 185.33958 26.471888 184.99583Q26.237513 184.65208 26.128138 184.23021Q26.034388 183.93333 25.956263 183.29271Q25.815638 182.02708 25.596888 181.41771Q25.378138 181.41771 25.331263 181.41771Q24.675013 181.41771 24.409388 181.71458Q24.065638 182.12083 24.065638 182.91771Q24.065638 183.65208 24.331263 184.01146Q24.581263 184.37083 25.237513 184.54271L25.096888 185.57396Q24.440638 185.43333 24.034388 185.10521Q23.628138 184.77708 23.409388 184.16771Q23.190638 183.55833 23.190638 182.76146Q23.190638 181.96458 23.378138 181.46458Q23.565638 180.96458 23.846888 180.73021Q24.128138 180.49583 24.565638 180.40208Q24.831263 180.35521 25.534388 180.35521L26.940638 180.35521Q28.409388 180.35521 28.800013 180.29271Q29.190638 180.21458 29.550013 180.01146L29.550013 181.12083Q29.221888 181.27708 28.784388 181.32396ZM26.425013 181.41771Q26.659388 181.99583 26.831263 183.13646Q26.925013 183.79271 27.050013 184.05833Q27.159388 184.32396 27.378138 184.48021Q27.596888 184.62083 27.878138 184.62083Q28.300013 184.62083 28.581263 184.30833Q28.862513 183.98021 28.862513 183.37083Q28.862513 182.76146 28.596888 182.29271Q28.331263 181.80833 27.862513 181.58958Q27.503138 181.41771 26.815638 181.41771L26.425013 181.41771ZM27.268763 174.32396L27.409388 173.29271Q28.471888 173.46458 29.081263 174.16771Q29.690638 174.87083 29.690638 175.88646Q29.690638 177.16771 28.862513 177.94896Q28.018763 178.71458 26.456263 178.71458Q25.456263 178.71458 24.706263 178.38646Q23.940638 178.04271 23.565638 177.37083Q23.190638 176.68333 23.190638 175.87083Q23.190638 174.87083 23.706263 174.23021Q24.206263 173.57396 25.159388 173.38646L25.315638 174.41771Q24.690638 174.55833 24.378138 174.93333Q24.050013 175.30833 24.050013 175.83958Q24.050013 176.63646 24.628138 177.13646Q25.190638 177.63646 26.425013 177.63646Q27.690638 177.63646 28.253138 177.15208Q28.815638 176.66771 28.815638 175.90208Q28.815638 175.27708 28.440638 174.87083Q28.065638 174.44896 27.268763 174.32396ZM29.550013 172.38646L20.956263 172.38646L20.956263 171.33958L24.034388 171.33958Q23.190638 170.60521 23.190638 169.48021Q23.190638 168.77708 23.471888 168.27708Q23.737513 167.76146 24.221888 167.54271Q24.690638 167.32396 25.612513 167.32396L29.550013 167.32396L29.550013 168.37083L25.612513 168.37083Q24.815638 168.37083 24.456263 168.71458Q24.096888 169.05833 24.096888 169.68333Q24.096888 170.15208 24.346888 170.57396Q24.581263 170.98021 25.003138 171.16771Q25.409388 171.33958 26.143763 171.33958L29.550013 171.33958L29.550013 172.38646ZM28.612513 163.08958L29.534388 162.93333Q29.628138 163.38646 29.628138 163.73021Q29.628138 164.30833 29.456263 164.62083Q29.268763 164.93333 28.971888 165.07396Q28.675013 165.19896 27.721888 165.19896L24.143763 165.19896L24.143763 165.96458L23.331263 165.96458L23.331263 165.19896L21.784388 165.19896L21.159388 164.15208L23.331263 164.15208L23.331263 163.08958L24.143763 163.08958L24.143763 164.15208L27.784388 164.15208Q28.237513 164.15208 28.362513 164.10521Q28.487513 164.04271 28.565638 163.91771Q28.643763 163.79271 28.643763 163.55833Q28.643763 163.37083 28.612513 163.08958Z" fill-rule="nonzero"/><path fill="#000000" d="M62.440624 129.4422L62.440624 120.84845L64.15938 120.84845L66.19063 126.926575Q66.47188 127.78595 66.59688 128.20782Q66.7375 127.739075 67.05 126.832825L69.1125 120.84845L70.64375 120.84845L70.64375 129.4422L69.55 129.4422L69.55 122.2547L67.05 129.4422L66.01875 129.4422L63.534374 122.1297L63.534374 129.4422L62.440624 129.4422ZM75.40938 128.67657Q74.81563 129.17657 74.26875 129.3797Q73.7375 129.58282 73.1125 129.58282Q72.08125 129.58282 71.53438 129.08282Q70.9875 128.58282 70.9875 127.801575Q70.9875 127.34845 71.19063 126.97345Q71.39375 126.582825 71.7375 126.364075Q72.08125 126.1297 72.50313 126.020325Q72.8 125.926575 73.44063 125.84845Q74.70625 125.707825 75.31563 125.489075Q75.31563 125.270325 75.31563 125.22345Q75.31563 124.5672 75.01875 124.301575Q74.6125 123.957825 73.81563 123.957825Q73.08125 123.957825 72.72188 124.22345Q72.3625 124.47345 72.19063 125.1297L71.15938 124.989075Q71.3 124.332825 71.62813 123.926575Q71.95625 123.520325 72.56563 123.301575Q73.175 123.082825 73.97188 123.082825Q74.76875 123.082825 75.26875 123.270325Q75.76875 123.457825 76.00313 123.739075Q76.2375 124.020325 76.33125 124.457825Q76.37813 124.72345 76.37813 125.426575L76.37813 126.832825Q76.37813 128.30157 76.44063 128.6922Q76.51875 129.08282 76.72188 129.4422L75.6125 129.4422Q75.45625 129.11407 75.40938 128.67657ZM75.31563 126.3172Q74.7375 126.551575 73.59688 126.72345Q72.94063 126.8172 72.675 126.9422Q72.40938 127.051575 72.25313 127.270325Q72.1125 127.489075 72.1125 127.770325Q72.1125 128.1922 72.425 128.47345Q72.75313 128.7547 73.3625 128.7547Q73.97188 128.7547 74.44063 128.48907Q74.925 128.22345 75.14375 127.7547Q75.31563 127.395325 75.31563 126.707825L75.31563 126.3172ZM78.34688 129.4422L78.34688 123.22345L79.28438 123.22345L79.28438 124.09845Q79.97188 123.082825 81.26875 123.082825Q81.83125 123.082825 82.3 123.28595Q82.78438 123.489075 83.01875 123.8172Q83.25313 124.145325 83.34688 124.582825Q83.39375 124.8797 83.39375 125.614075L83.39375 129.4422L82.34688 129.4422L82.34688 125.66095Q82.34688 125.0047 82.22188 124.6922Q82.09688 124.3797 81.78438 124.1922Q81.47188 123.989075 81.05 123.989075Q80.37813 123.989075 79.87813 124.426575Q79.39375 124.84845 79.39375 126.03595L79.39375 129.4422L78.34688 129.4422Z" fill-rule="nonzero"/><path fill="#000000" d="M53.925 233.92447L50.596874 225.33072L51.83125 225.33072L54.065624 231.58072Q54.33125 232.33072 54.51875 232.98697Q54.721874 232.28384 54.9875 231.58072L57.3 225.33072L58.45625 225.33072L55.096874 233.92447L53.925 233.92447ZM58.33125 233.92447L58.33125 227.70572L59.284374 227.70572L59.284374 228.64322Q59.64375 227.98697 59.940624 227.78384Q60.253124 227.5651 60.628124 227.5651Q61.159374 227.5651 61.70625 227.89322L61.346874 228.8776Q60.95625 228.64322 60.58125 228.64322Q60.221874 228.64322 59.940624 228.86197Q59.675 229.0651 59.565624 229.4401Q59.378124 230.0026 59.378124 230.65884L59.378124 233.92447L58.33125 233.92447ZM61.95625 230.8151Q61.95625 229.08072 62.909374 228.2526Q63.70625 227.5651 64.8625 227.5651Q66.14375 227.5651 66.95625 228.40884Q67.78438 229.23697 67.78438 230.72134Q67.78438 231.92447 67.425 232.61197Q67.06563 233.29947 66.3625 233.6901Q65.675 234.0651 64.8625 234.0651Q63.565624 234.0651 62.753124 233.23697Q61.95625 232.39322 61.95625 230.8151ZM63.034374 230.8151Q63.034374 232.0026 63.55 232.59634Q64.08125 233.1901 64.8625 233.1901Q65.65938 233.1901 66.175 232.59634Q66.69063 232.0026 66.69063 230.78384Q66.69063 229.6276 66.15938 229.03384Q65.64375 228.4401 64.8625 228.4401Q64.08125 228.4401 63.55 229.03384Q63.034374 229.61197 63.034374 230.8151ZM73.425 233.92447L73.425 233.0026Q72.69063 234.0651 71.44063 234.0651Q70.89375 234.0651 70.40938 233.86197Q69.94063 233.64322 69.70625 233.33072Q69.47188 233.0026 69.37813 232.53384Q69.31563 232.23697 69.31563 231.54947L69.31563 227.70572L70.37813 227.70572L70.37813 231.15884Q70.37813 231.97134 70.44063 232.26822Q70.53438 232.67447 70.84688 232.92447Q71.175 233.15884 71.65938 233.15884Q72.12813 233.15884 72.53438 232.92447Q72.95625 232.67447 73.12813 232.2526Q73.31563 231.83072 73.31563 231.03384L73.31563 227.70572L74.3625 227.70572L74.3625 233.92447L73.425 233.92447ZM77.4875 233.92447L75.58125 227.70572L76.675 227.70572L77.65938 231.29947L78.03438 232.6276Q78.06563 232.53384 78.3625 231.34634L79.34688 227.70572L80.425 227.70572L81.3625 231.3151L81.675 232.5026L82.03438 231.29947L83.09688 227.70572L84.12813 227.70572L82.175 233.92447L81.08125 233.92447L80.09688 230.1901L79.84688 229.14322L78.59688 233.92447L77.4875 233.92447Z" fill-rule="nonzero"/><path fill="#000000" d="M82.05 313.21564Q82.05 311.6844 82.3625 310.7625Q82.675 309.825 83.28438 309.325Q83.90938 308.825 84.84688 308.825Q85.53438 308.825 86.05 309.10626Q86.58125 309.3875 86.925 309.91876Q87.26875 310.4344 87.45625 311.1844Q87.64375 311.9344 87.64375 313.21564Q87.64375 314.73126 87.33125 315.65314Q87.03438 316.575 86.40938 317.09064Q85.8 317.59064 84.84688 317.59064Q83.6125 317.59064 82.89375 316.7Q82.05 315.6375 82.05 313.21564ZM83.12813 313.21564Q83.12813 315.325 83.62813 316.02814Q84.12813 316.73126 84.84688 316.73126Q85.58125 316.73126 86.06563 316.02814Q86.56563 315.325 86.56563 313.21564Q86.56563 311.09064 86.06563 310.40314Q85.58125 309.7 84.83125 309.7Q84.1125 309.7 83.675 310.3094Q83.12813 311.09064 83.12813 313.21564ZM89.25313 310.91876Q89.25313 309.9969 89.70625 309.35626Q90.175 308.71564 91.05 308.71564Q91.8625 308.71564 92.39375 309.29376Q92.925 309.8719 92.925 310.98126Q92.925 312.075 92.37813 312.66876Q91.84688 313.2469 91.06563 313.2469Q90.28438 313.2469 89.76875 312.66876Q89.25313 312.09064 89.25313 310.91876ZM91.08125 309.4344Q90.69063 309.4344 90.425 309.77814Q90.175 310.1219 90.175 311.02814Q90.175 311.85626 90.425 312.2Q90.69063 312.52814 91.08125 312.52814Q91.4875 312.52814 91.7375 312.1844Q92.00313 311.84064 92.00313 310.95Q92.00313 310.10626 91.7375 309.77814Q91.47188 309.4344 91.08125 309.4344ZM91.08125 317.7625L95.78438 308.71564L96.64375 308.71564L91.95625 317.7625L91.08125 317.7625ZM94.8 315.4344Q94.8 314.5125 95.25313 313.8719Q95.72188 313.23126 96.6125 313.23126Q97.425 313.23126 97.95625 313.8094Q98.4875 314.3719 98.4875 315.4969Q98.4875 316.59064 97.94063 317.1844Q97.40938 317.7625 96.6125 317.7625Q95.84688 317.7625 95.31563 317.1844Q94.8 316.60626 94.8 315.4344ZM96.64375 313.95Q96.2375 313.95 95.97188 314.29376Q95.72188 314.6375 95.72188 315.54376Q95.72188 316.35626 95.9875 316.7Q96.25313 317.04376 96.64375 317.04376Q97.03438 317.04376 97.3 316.7Q97.56563 316.35626 97.56563 315.45Q97.56563 314.6219 97.3 314.29376Q97.03438 313.95 96.64375 313.95Z" fill-rule="nonzero"/><path fill="#000000" d="M180.61299 316.4344L180.61299 317.45L174.92549 317.45Q174.92549 317.075 175.05049 316.71564Q175.26924 316.1375 175.73799 315.575Q176.22237 315.0125 177.12862 314.27814Q178.53487 313.1219 179.01924 312.45Q179.51924 311.77814 179.51924 311.1844Q179.51924 310.5594 179.06612 310.1375Q178.61299 309.7 177.89424 309.7Q177.12862 309.7 176.67549 310.15314Q176.22237 310.60626 176.20674 311.41876L175.12862 311.3094Q175.23799 310.09064 175.95674 309.46564Q176.69112 308.825 177.92549 308.825Q179.15987 308.825 179.87862 309.5125Q180.59737 310.2 180.59737 311.21564Q180.59737 311.73126 180.37862 312.23126Q180.17549 312.71564 179.67549 313.27814Q179.19112 313.825 178.06612 314.77814Q177.11299 315.575 176.83174 315.8719Q176.56612 316.15314 176.39424 316.4344L180.61299 316.4344ZM182.06612 315.2L183.17549 315.10626Q183.30049 315.91876 183.73799 316.325Q184.19112 316.73126 184.83174 316.73126Q185.58174 316.73126 186.11299 316.15314Q186.64424 315.575 186.64424 314.6375Q186.64424 313.73126 186.12862 313.21564Q185.62862 312.6844 184.80049 312.6844Q184.30049 312.6844 183.87862 312.91876Q183.47237 313.15314 183.23799 313.5125L182.25362 313.3875L183.08174 308.98126L187.36299 308.98126L187.36299 309.98126L183.92549 309.98126L183.47237 312.29376Q184.23799 311.7469 185.08174 311.7469Q186.20674 311.7469 186.97237 312.52814Q187.75362 313.3094 187.75362 314.54376Q187.75362 315.7 187.08174 316.5594Q186.25362 317.59064 184.83174 317.59064Q183.65987 317.59064 182.90987 316.9344Q182.17549 316.27814 182.06612 315.2ZM189.26924 310.91876Q189.26924 309.9969 189.72237 309.35626Q190.19112 308.71564 191.06612 308.71564Q191.87862 308.71564 192.40987 309.29376Q192.94112 309.8719 192.94112 310.98126Q192.94112 312.075 192.39424 312.66876Q191.86299 313.2469 191.08174 313.2469Q190.30049 313.2469 189.78487 312.66876Q189.26924 312.09064 189.26924 310.91876ZM191.09737 309.4344Q190.70674 309.4344 190.44112 309.77814Q190.19112 310.1219 190.19112 311.02814Q190.19112 311.85626 190.44112 312.2Q190.70674 312.52814 191.09737 312.52814Q191.50362 312.52814 191.75362 312.1844Q192.01924 311.84064 192.01924 310.95Q192.01924 310.10626 191.75362 309.77814Q191.48799 309.4344 191.09737 309.4344ZM191.09737 317.7625L195.80049 308.71564L196.65987 308.71564L191.97237 317.7625L191.09737 317.7625ZM194.81612 315.4344Q194.81612 314.5125 195.26924 313.8719Q195.73799 313.23126 196.62862 313.23126Q197.44112 313.23126 197.97237 313.8094Q198.50362 314.3719 198.50362 315.4969Q198.50362 316.59064 197.95674 317.1844Q197.42549 317.7625 196.62862 317.7625Q195.86299 317.7625 195.33174 317.1844Q194.81612 316.60626 194.81612 315.4344ZM196.65987 313.95Q196.25362 313.95 195.98799 314.29376Q195.73799 314.6375 195.73799 315.54376Q195.73799 316.35626 196.00362 316.7Q196.26924 317.04376 196.65987 317.04376Q197.05049 317.04376 197.31612 316.7Q197.58174 316.35626 197.58174 315.45Q197.58174 314.6219 197.31612 314.29376Q197.05049 313.95 196.65987 313.95Z" fill-rule="nonzero"/><path fill="#000000" d="M271.5822 315.2L272.6916 315.10626Q272.8166 315.91876 273.2541 316.325Q273.7072 316.73126 274.34784 316.73126Q275.09784 316.73126 275.6291 316.15314Q276.16034 315.575 276.16034 314.6375Q276.16034 313.73126 275.6447 313.21564Q275.1447 312.6844 274.3166 312.6844Q273.8166 312.6844 273.3947 312.91876Q272.98846 313.15314 272.7541 313.5125L271.7697 313.3875L272.59784 308.98126L276.8791 308.98126L276.8791 309.98126L273.4416 309.98126L272.98846 312.29376Q273.7541 311.7469 274.59784 311.7469Q275.72284 311.7469 276.48846 312.52814Q277.2697 313.3094 277.2697 314.54376Q277.2697 315.7 276.59784 316.5594Q275.7697 317.59064 274.34784 317.59064Q273.17596 317.59064 272.42596 316.9344Q271.6916 316.27814 271.5822 315.2ZM278.5822 313.21564Q278.5822 311.6844 278.8947 310.7625Q279.2072 309.825 279.8166 309.325Q280.4416 308.825 281.3791 308.825Q282.0666 308.825 282.5822 309.10626Q283.11346 309.3875 283.4572 309.91876Q283.80096 310.4344 283.98846 311.1844Q284.17596 311.9344 284.17596 313.21564Q284.17596 314.73126 283.86346 315.65314Q283.5666 316.575 282.9416 317.09064Q282.3322 317.59064 281.3791 317.59064Q280.1447 317.59064 279.42596 316.7Q278.5822 315.6375 278.5822 313.21564ZM279.66034 313.21564Q279.66034 315.325 280.16034 316.02814Q280.66034 316.73126 281.3791 316.73126Q282.11346 316.73126 282.59784 316.02814Q283.09784 315.325 283.09784 313.21564Q283.09784 311.09064 282.59784 310.40314Q282.11346 309.7 281.36346 309.7Q280.6447 309.7 280.2072 310.3094Q279.66034 311.09064 279.66034 313.21564ZM285.78534 310.91876Q285.78534 309.9969 286.23846 309.35626Q286.7072 308.71564 287.5822 308.71564Q288.3947 308.71564 288.92596 309.29376Q289.4572 309.8719 289.4572 310.98126Q289.4572 312.075 288.91034 312.66876Q288.3791 313.2469 287.59784 313.2469Q286.8166 313.2469 286.30096 312.66876Q285.78534 312.09064 285.78534 310.91876ZM287.61346 309.4344Q287.22284 309.4344 286.9572 309.77814Q286.7072 310.1219 286.7072 311.02814Q286.7072 311.85626 286.9572 312.2Q287.22284 312.52814 287.61346 312.52814Q288.0197 312.52814 288.2697 312.1844Q288.53534 311.84064 288.53534 310.95Q288.53534 310.10626 288.2697 309.77814Q288.0041 309.4344 287.61346 309.4344ZM287.61346 317.7625L292.3166 308.71564L293.17596 308.71564L288.48846 317.7625L287.61346 317.7625ZM291.3322 315.4344Q291.3322 314.5125 291.78534 313.8719Q292.2541 313.23126 293.1447 313.23126Q293.9572 313.23126 294.48846 313.8094Q295.0197 314.3719 295.0197 315.4969Q295.0197 316.59064 294.47284 317.1844Q293.9416 317.7625 293.1447 317.7625Q292.3791 317.7625 291.84784 317.1844Q291.3322 316.60626 291.3322 315.4344ZM293.17596 313.95Q292.7697 313.95 292.5041 314.29376Q292.2541 314.6375 292.2541 315.54376Q292.2541 316.35626 292.5197 316.7Q292.78534 317.04376 293.17596 317.04376Q293.5666 317.04376 293.8322 316.7Q294.09784 316.35626 294.09784 315.45Q294.09784 314.6219 293.8322 314.29376Q293.5666 313.95 293.17596 313.95Z" fill-rule="nonzero"/><path fill="#000000" d="M368.16083 309.98126L368.16083 308.96564L373.72333 308.96564L373.72333 309.79376Q372.91083 310.66876 372.09833 312.1219Q371.30145 313.5594 370.86395 315.09064Q370.53583 316.16876 370.4577 317.45L369.36395 317.45Q369.37958 316.4344 369.75458 314.9969Q370.1452 313.5594 370.84833 312.23126Q371.56708 310.90314 372.37958 309.98126L368.16083 309.98126ZM375.09833 315.2L376.2077 315.10626Q376.3327 315.91876 376.7702 316.325Q377.22333 316.73126 377.86395 316.73126Q378.61395 316.73126 379.1452 316.15314Q379.67645 315.575 379.67645 314.6375Q379.67645 313.73126 379.16083 313.21564Q378.66083 312.6844 377.8327 312.6844Q377.3327 312.6844 376.91083 312.91876Q376.50458 313.15314 376.2702 313.5125L375.28583 313.3875L376.11395 308.98126L380.3952 308.98126L380.3952 309.98126L376.9577 309.98126L376.50458 312.29376Q377.2702 311.7469 378.11395 311.7469Q379.23895 311.7469 380.00458 312.52814Q380.78583 313.3094 380.78583 314.54376Q380.78583 315.7 380.11395 316.5594Q379.28583 317.59064 377.86395 317.59064Q376.69208 317.59064 375.94208 316.9344Q375.2077 316.27814 375.09833 315.2ZM382.30145 310.91876Q382.30145 309.9969 382.75458 309.35626Q383.22333 308.71564 384.09833 308.71564Q384.91083 308.71564 385.44208 309.29376Q385.97333 309.8719 385.97333 310.98126Q385.97333 312.075 385.42645 312.66876Q384.8952 313.2469 384.11395 313.2469Q383.3327 313.2469 382.81708 312.66876Q382.30145 312.09064 382.30145 310.91876ZM384.12958 309.4344Q383.73895 309.4344 383.47333 309.77814Q383.22333 310.1219 383.22333 311.02814Q383.22333 311.85626 383.47333 312.2Q383.73895 312.52814 384.12958 312.52814Q384.53583 312.52814 384.78583 312.1844Q385.05145 311.84064 385.05145 310.95Q385.05145 310.10626 384.78583 309.77814Q384.5202 309.4344 384.12958 309.4344ZM384.12958 317.7625L388.8327 308.71564L389.69208 308.71564L385.00458 317.7625L384.12958 317.7625ZM387.84833 315.4344Q387.84833 314.5125 388.30145 313.8719Q388.7702 313.23126 389.66083 313.23126Q390.47333 313.23126 391.00458 313.8094Q391.53583 314.3719 391.53583 315.4969Q391.53583 316.59064 390.98895 317.1844Q390.4577 317.7625 389.66083 317.7625Q388.8952 317.7625 388.36395 317.1844Q387.84833 316.60626 387.84833 315.4344ZM389.69208 313.95Q389.28583 313.95 389.0202 314.29376Q388.7702 314.6375 388.7702 315.54376Q388.7702 316.35626 389.03583 316.7Q389.30145 317.04376 389.69208 317.04376Q390.0827 317.04376 390.34833 316.7Q390.61395 316.35626 390.61395 315.45Q390.61395 314.6219 390.34833 314.29376Q390.0827 313.95 389.69208 313.95Z" fill-rule="nonzero"/><path fill="#000000" d="M465.0832 317.45L464.03632 317.45L464.03632 310.73126Q463.6457 311.09064 463.0207 311.46564Q462.41132 311.825 461.92694 311.9969L461.92694 310.98126Q462.80194 310.5594 463.4582 309.98126Q464.13007 309.3875 464.41132 308.825L465.0832 308.825L465.0832 317.45ZM468.11444 313.21564Q468.11444 311.6844 468.42694 310.7625Q468.73944 309.825 469.34882 309.325Q469.97382 308.825 470.91132 308.825Q471.59882 308.825 472.11444 309.10626Q472.6457 309.3875 472.98944 309.91876Q473.3332 310.4344 473.5207 311.1844Q473.7082 311.9344 473.7082 313.21564Q473.7082 314.73126 473.3957 315.65314Q473.09882 316.575 472.47382 317.09064Q471.86444 317.59064 470.91132 317.59064Q469.67694 317.59064 468.9582 316.7Q468.11444 315.6375 468.11444 313.21564ZM469.19257 313.21564Q469.19257 315.325 469.69257 316.02814Q470.19257 316.73126 470.91132 316.73126Q471.6457 316.73126 472.13007 316.02814Q472.63007 315.325 472.63007 313.21564Q472.63007 311.09064 472.13007 310.40314Q471.6457 309.7 470.8957 309.7Q470.17694 309.7 469.73944 310.3094Q469.19257 311.09064 469.19257 313.21564ZM475.11444 313.21564Q475.11444 311.6844 475.42694 310.7625Q475.73944 309.825 476.34882 309.325Q476.97382 308.825 477.91132 308.825Q478.59882 308.825 479.11444 309.10626Q479.6457 309.3875 479.98944 309.91876Q480.3332 310.4344 480.5207 311.1844Q480.7082 311.9344 480.7082 313.21564Q480.7082 314.73126 480.3957 315.65314Q480.09882 316.575 479.47382 317.09064Q478.86444 317.59064 477.91132 317.59064Q476.67694 317.59064 475.9582 316.7Q475.11444 315.6375 475.11444 313.21564ZM476.19257 313.21564Q476.19257 315.325 476.69257 316.02814Q477.19257 316.73126 477.91132 316.73126Q478.6457 316.73126 479.13007 316.02814Q479.63007 315.325 479.63007 313.21564Q479.63007 311.09064 479.13007 310.40314Q478.6457 309.7 477.8957 309.7Q477.17694 309.7 476.73944 310.3094Q476.19257 311.09064 476.19257 313.21564ZM482.31757 310.91876Q482.31757 309.9969 482.7707 309.35626Q483.23944 308.71564 484.11444 308.71564Q484.92694 308.71564 485.4582 309.29376Q485.98944 309.8719 485.98944 310.98126Q485.98944 312.075 485.44257 312.66876Q484.91132 313.2469 484.13007 313.2469Q483.34882 313.2469 482.8332 312.66876Q482.31757 312.09064 482.31757 310.91876ZM484.1457 309.4344Q483.75507 309.4344 483.48944 309.77814Q483.23944 310.1219 483.23944 311.02814Q483.23944 311.85626 483.48944 312.2Q483.75507 312.52814 484.1457 312.52814Q484.55194 312.52814 484.80194 312.1844Q485.06757 311.84064 485.06757 310.95Q485.06757 310.10626 484.80194 309.77814Q484.53632 309.4344 484.1457 309.4344ZM484.1457 317.7625L488.84882 308.71564L489.7082 308.71564L485.0207 317.7625L484.1457 317.7625ZM487.86444 315.4344Q487.86444 314.5125 488.31757 313.8719Q488.78632 313.23126 489.67694 313.23126Q490.48944 313.23126 491.0207 313.8094Q491.55194 314.3719 491.55194 315.4969Q491.55194 316.59064 491.00507 317.1844Q490.47382 317.7625 489.67694 317.7625Q488.91132 317.7625 488.38007 317.1844Q487.86444 316.60626 487.86444 315.4344ZM489.7082 313.95Q489.30194 313.95 489.03632 314.29376Q488.78632 314.6375 488.78632 315.54376Q488.78632 316.35626 489.05194 316.7Q489.31757 317.04376 489.7082 317.04376Q490.09882 317.04376 490.36444 316.7Q490.63007 316.35626 490.63007 315.45Q490.63007 314.6219 490.36444 314.29376Q490.09882 313.95 489.7082 313.95Z" fill-rule="nonzero"/><path fill="#4285f4" d="M496.45 56.916668C496.45 56.364384 496.8977 55.916668 497.45 55.916668L507.45 55.916668C508.0023 55.916668 508.45 56.364384 508.45 56.916668L508.45 66.916664C508.45 67.46895 508.0023 67.916664 507.45 67.916664L497.45 67.916664C496.8977 67.916664 496.45 67.46895 496.45 66.916664Z" fill-rule="nonzero"/><path fill="#1a1a1a" d="M517.4344 65.916664L517.4344 57.322914L523.23126 57.322914L523.23126 58.33854L518.575 58.33854L518.575 60.99479L522.60626 60.99479L522.60626 62.010414L518.575 62.010414L518.575 65.916664L517.4344 65.916664ZM524.2469 58.541664L524.2469 57.322914L525.3094 57.322914L525.3094 58.541664L524.2469 58.541664ZM524.2469 65.916664L524.2469 59.697914L525.3094 59.697914L525.3094 65.916664L524.2469 65.916664ZM527.21564 65.916664L527.21564 57.322914L528.27814 57.322914L528.27814 65.916664L527.21564 65.916664ZM534.3094 65.15104Q533.71564 65.65104 533.16876 65.854164Q532.6375 66.05729 532.0125 66.05729Q530.98126 66.05729 530.4344 65.55729Q529.8875 65.05729 529.8875 64.27604Q529.8875 63.822914 530.09064 63.447914Q530.29376 63.05729 530.6375 62.83854Q530.98126 62.604164 531.40314 62.49479Q531.7 62.40104 532.34064 62.322914Q533.60626 62.18229 534.21564 61.96354Q534.21564 61.74479 534.21564 61.697914Q534.21564 61.041664 533.91876 60.77604Q533.5125 60.43229 532.71564 60.43229Q531.98126 60.43229 531.6219 60.697914Q531.2625 60.947914 531.09064 61.604164L530.0594 61.46354Q530.2 60.80729 530.52814 60.40104Q530.85626 59.99479 531.46564 59.77604Q532.075 59.55729 532.8719 59.55729Q533.66876 59.55729 534.16876 59.74479Q534.66876 59.93229 534.90314 60.21354Q535.1375 60.49479 535.23126 60.93229Q535.27814 61.197914 535.27814 61.90104L535.27814 63.30729Q535.27814 64.77604 535.34064 65.166664Q535.41876 65.55729 535.6219 65.916664L534.5125 65.916664Q534.35626 65.58854 534.3094 65.15104ZM534.21564 62.791664Q533.6375 63.02604 532.4969 63.197914Q531.84064 63.291664 531.575 63.416664Q531.3094 63.52604 531.15314 63.74479Q531.0125 63.96354 531.0125 64.24479Q531.0125 64.666664 531.325 64.947914Q531.65314 65.229164 532.2625 65.229164Q532.8719 65.229164 533.34064 64.96354Q533.825 64.697914 534.04376 64.229164Q534.21564 63.86979 534.21564 63.18229L534.21564 62.791664ZM537.2469 65.916664L537.2469 59.697914L538.1844 59.697914L538.1844 60.572914Q538.8719 59.55729 540.16876 59.55729Q540.73126 59.55729 541.2 59.760414Q541.6844 59.96354 541.91876 60.291664Q542.15314 60.61979 542.2469 61.05729Q542.29376 61.354164 542.29376 62.08854L542.29376 65.916664L541.2469 65.916664L541.2469 62.135414Q541.2469 61.479164 541.1219 61.166664Q540.9969 60.854164 540.6844 60.666664Q540.3719 60.46354 539.95 60.46354Q539.27814 60.46354 538.77814 60.90104Q538.29376 61.322914 538.29376 62.510414L538.29376 65.916664L537.2469 65.916664ZM546.54376 64.979164L546.7 65.90104Q546.2469 65.99479 545.90314 65.99479Q545.325 65.99479 545.0125 65.822914Q544.7 65.635414 544.5594 65.33854Q544.4344 65.041664 544.4344 64.08854L544.4344 60.510414L543.66876 60.510414L543.66876 59.697914L544.4344 59.697914L544.4344 58.15104L545.48126 57.52604L545.48126 59.697914L546.54376 59.697914L546.54376 60.510414L545.48126 60.510414L545.48126 64.15104Q545.48126 64.604164 545.52814 64.729164Q545.59064 64.854164 545.71564 64.93229Q545.84064 65.010414 546.075 65.010414Q546.2625 65.010414 546.54376 64.979164ZM547.23126 65.916664L547.23126 59.697914L548.1844 59.697914L548.1844 60.635414Q548.54376 59.979164 548.84064 59.77604Q549.15314 59.55729 549.52814 59.55729Q550.0594 59.55729 550.60626 59.885414L550.2469 60.86979Q549.85626 60.635414 549.48126 60.635414Q549.1219 60.635414 548.84064 60.854164Q548.575 61.05729 548.46564 61.43229Q548.27814 61.99479 548.27814 62.65104L548.27814 65.916664L547.23126 65.916664ZM550.85626 62.80729Q550.85626 61.072914 551.8094 60.24479Q552.60626 59.55729 553.7625 59.55729Q555.04376 59.55729 555.85626 60.40104Q556.6844 61.229164 556.6844 62.71354Q556.6844 63.916664 556.325 64.604164Q555.96564 65.291664 555.2625 65.68229Q554.575 66.05729 553.7625 66.05729Q552.46564 66.05729 551.65314 65.229164Q550.85626 64.385414 550.85626 62.80729ZM551.9344 62.80729Q551.9344 63.99479 552.45 64.58854Q552.98126 65.18229 553.7625 65.18229Q554.5594 65.18229 555.075 64.58854Q555.59064 63.99479 555.59064 62.77604Q555.59064 61.61979 555.0594 61.02604Q554.54376 60.43229 553.7625 60.43229Q552.98126 60.43229 552.45 61.02604Q551.9344 61.604164 551.9344 62.80729ZM557.85626 62.80729Q557.85626 61.072914 558.8094 60.24479Q559.60626 59.55729 560.7625 59.55729Q562.04376 59.55729 562.85626 60.40104Q563.6844 61.229164 563.6844 62.71354Q563.6844 63.916664 563.325 64.604164Q562.96564 65.291664 562.2625 65.68229Q561.575 66.05729 560.7625 66.05729Q559.46564 66.05729 558.65314 65.229164Q557.85626 64.385414 557.85626 62.80729ZM558.9344 62.80729Q558.9344 63.99479 559.45 64.58854Q559.98126 65.18229 560.7625 65.18229Q561.5594 65.18229 562.075 64.58854Q562.59064 63.99479 562.59064 62.77604Q562.59064 61.61979 562.0594 61.02604Q561.54376 60.43229 560.7625 60.43229Q559.98126 60.43229 559.45 61.02604Q558.9344 61.604164 558.9344 62.80729ZM565.2469 68.30729L565.2469 59.697914L566.2 59.697914L566.2 60.49479Q566.54376 60.02604 566.96564 59.791664Q567.40314 59.55729 568.0125 59.55729Q568.8094 59.55729 569.41876 59.96354Q570.02814 60.36979 570.325 61.11979Q570.6375 61.86979 570.6375 62.760414Q570.6375 63.71354 570.29376 64.479164Q569.96564 65.24479 569.3094 65.65104Q568.65314 66.05729 567.9344 66.05729Q567.40314 66.05729 566.98126 65.83854Q566.5594 65.604164 566.29376 65.27604L566.29376 68.30729L565.2469 68.30729ZM566.2 62.83854Q566.2 64.041664 566.6844 64.61979Q567.16876 65.18229 567.85626 65.18229Q568.5594 65.18229 569.0594 64.58854Q569.5594 63.99479 569.5594 62.74479Q569.5594 61.55729 569.075 60.979164Q568.59064 60.385414 567.90314 60.385414Q567.23126 60.385414 566.71564 61.010414Q566.2 61.635414 566.2 62.83854Z" fill-rule="nonzero"/><path fill="#ea4335" d="M496.45 80.916664C496.45 80.36438 496.8977 79.916664 497.45 79.916664L507.45 79.916664C508.0023 79.916664 508.45 80.36438 508.45 80.916664L508.45 90.916664C508.45 91.46895 508.0023 91.916664 507.45 91.916664L497.45 91.916664C496.8977 91.916664 496.45 91.46895 496.45 90.916664Z" fill-rule="nonzero"/><path fill="#1a1a1a" d="M516.9969 87.15104L518.0594 87.05729Q518.1375 87.71354 518.41876 88.11979Q518.7 88.52604 519.27814 88.791664Q519.8719 89.041664 520.60626 89.041664Q521.2469 89.041664 521.7469 88.854164Q522.2469 88.65104 522.48126 88.322914Q522.73126 87.979164 522.73126 87.58854Q522.73126 87.18229 522.4969 86.885414Q522.2625 86.572914 521.73126 86.36979Q521.3719 86.229164 520.1844 85.947914Q519.0125 85.666664 518.54376 85.416664Q517.91876 85.08854 517.6219 84.61979Q517.325 84.135414 517.325 83.541664Q517.325 82.90104 517.6844 82.33854Q518.0594 81.760414 518.7625 81.479164Q519.48126 81.18229 520.34064 81.18229Q521.29376 81.18229 522.02814 81.49479Q522.7625 81.791664 523.15314 82.40104Q523.54376 82.99479 523.575 83.74479L522.48126 83.822914Q522.3875 83.010414 521.8719 82.604164Q521.3719 82.18229 520.3875 82.18229Q519.35626 82.18229 518.8875 82.55729Q518.41876 82.93229 518.41876 83.46354Q518.41876 83.93229 518.7469 84.229164Q519.075 84.52604 520.45 84.83854Q521.84064 85.15104 522.35626 85.385414Q523.10626 85.74479 523.46564 86.27604Q523.825 86.791664 523.825 87.49479Q523.825 88.18229 523.4344 88.791664Q523.04376 89.385414 522.3094 89.729164Q521.575 90.05729 520.65314 90.05729Q519.48126 90.05729 518.6844 89.729164Q517.90314 89.385414 517.45 88.697914Q517.0125 88.010414 516.9969 87.15104ZM524.85626 86.80729Q524.85626 85.072914 525.8094 84.24479Q526.60626 83.55729 527.7625 83.55729Q529.04376 83.55729 529.85626 84.40104Q530.6844 85.229164 530.6844 86.71354Q530.6844 87.916664 530.325 88.604164Q529.96564 89.291664 529.2625 89.68229Q528.575 90.05729 527.7625 90.05729Q526.46564 90.05729 525.65314 89.229164Q524.85626 88.385414 524.85626 86.80729ZM525.9344 86.80729Q525.9344 87.99479 526.45 88.58854Q526.98126 89.18229 527.7625 89.18229Q528.5594 89.18229 529.075 88.58854Q529.59064 87.99479 529.59064 86.77604Q529.59064 85.61979 529.0594 85.02604Q528.54376 84.43229 527.7625 84.43229Q526.98126 84.43229 526.45 85.02604Q525.9344 85.604164 525.9344 86.80729ZM536.3094 87.635414L537.34064 87.77604Q537.16876 88.83854 536.46564 89.447914Q535.7625 90.05729 534.7469 90.05729Q533.46564 90.05729 532.6844 89.229164Q531.91876 88.385414 531.91876 86.822914Q531.91876 85.822914 532.2469 85.072914Q532.59064 84.30729 533.2625 83.93229Q533.95 83.55729 534.7625 83.55729Q535.7625 83.55729 536.40314 84.072914Q537.0594 84.572914 537.2469 85.52604L536.21564 85.68229Q536.075 85.05729 535.7 84.74479Q535.325 84.416664 534.79376 84.416664Q533.9969 84.416664 533.4969 84.99479Q532.9969 85.55729 532.9969 86.791664Q532.9969 88.05729 533.48126 88.61979Q533.96564 89.18229 534.73126 89.18229Q535.35626 89.18229 535.7625 88.80729Q536.1844 88.43229 536.3094 87.635414ZM538.2469 82.541664L538.2469 81.322914L539.3094 81.322914L539.3094 82.541664L538.2469 82.541664ZM538.2469 89.916664L538.2469 83.697914L539.3094 83.697914L539.3094 89.916664L538.2469 89.916664ZM545.3094 89.15104Q544.71564 89.65104 544.16876 89.854164Q543.6375 90.05729 543.0125 90.05729Q541.98126 90.05729 541.4344 89.55729Q540.8875 89.05729 540.8875 88.27604Q540.8875 87.822914 541.09064 87.447914Q541.29376 87.05729 541.6375 86.83854Q541.98126 86.604164 542.40314 86.49479Q542.7 86.40104 543.34064 86.322914Q544.60626 86.18229 545.21564 85.96354Q545.21564 85.74479 545.21564 85.697914Q545.21564 85.041664 544.91876 84.77604Q544.5125 84.43229 543.71564 84.43229Q542.98126 84.43229 542.6219 84.697914Q542.2625 84.947914 542.09064 85.604164L541.0594 85.46354Q541.2 84.80729 541.52814 84.40104Q541.85626 83.99479 542.46564 83.77604Q543.075 83.55729 543.8719 83.55729Q544.66876 83.55729 545.16876 83.74479Q545.66876 83.93229 545.90314 84.21354Q546.1375 84.49479 546.23126 84.93229Q546.27814 85.197914 546.27814 85.90104L546.27814 87.30729Q546.27814 88.77604 546.34064 89.166664Q546.41876 89.55729 546.6219 89.916664L545.5125 89.916664Q545.35626 89.58854 545.3094 89.15104ZM545.21564 86.791664Q544.6375 87.02604 543.4969 87.197914Q542.84064 87.291664 542.575 87.416664Q542.3094 87.52604 542.15314 87.74479Q542.0125 87.96354 542.0125 88.24479Q542.0125 88.666664 542.325 88.947914Q542.65314 89.229164 543.2625 89.229164Q543.8719 89.229164 544.34064 88.96354Q544.825 88.697914 545.04376 88.229164Q545.21564 87.86979 545.21564 87.18229L545.21564 86.791664ZM548.21564 89.916664L548.21564 81.322914L549.27814 81.322914L549.27814 89.916664L548.21564 89.916664ZM551.2469 82.541664L551.2469 81.322914L552.3094 81.322914L552.3094 82.541664L551.2469 82.541664ZM551.2469 89.916664L551.2469 83.697914L552.3094 83.697914L552.3094 89.916664L551.2469 89.916664ZM553.825 88.05729L554.85626 87.90104Q554.95 88.52604 555.34064 88.854164Q555.7469 89.18229 556.48126 89.18229Q557.2 89.18229 557.54376 88.90104Q557.90314 88.604164 557.90314 88.197914Q557.90314 87.83854 557.59064 87.635414Q557.3719 87.49479 556.5125 87.27604Q555.35626 86.979164 554.90314 86.77604Q554.46564 86.55729 554.23126 86.18229Q553.9969 85.80729 553.9969 85.33854Q553.9969 84.93229 554.1844 84.572914Q554.3719 84.21354 554.7 83.979164Q554.95 83.80729 555.3719 83.68229Q555.79376 83.55729 556.29376 83.55729Q557.0125 83.55729 557.5594 83.77604Q558.1219 83.979164 558.3875 84.33854Q558.65314 84.697914 558.7469 85.291664L557.71564 85.43229Q557.65314 84.96354 557.3094 84.697914Q556.98126 84.416664 556.35626 84.416664Q555.6375 84.416664 555.325 84.666664Q555.0125 84.90104 555.0125 85.229164Q555.0125 85.43229 555.1375 85.58854Q555.27814 85.760414 555.54376 85.86979Q555.7 85.93229 556.48126 86.135414Q557.60626 86.447914 558.04376 86.635414Q558.48126 86.822914 558.73126 87.18229Q558.98126 87.541664 558.98126 88.08854Q558.98126 88.61979 558.66876 89.08854Q558.3719 89.541664 557.79376 89.80729Q557.21564 90.05729 556.48126 90.05729Q555.2625 90.05729 554.6219 89.55729Q553.9969 89.041664 553.825 88.05729ZM565.4969 87.916664L566.59064 88.041664Q566.34064 88.99479 565.6375 89.52604Q564.9344 90.05729 563.85626 90.05729Q562.4969 90.05729 561.6844 89.21354Q560.8875 88.36979 560.8875 86.854164Q560.8875 85.291664 561.7 84.43229Q562.5125 83.55729 563.79376 83.55729Q565.04376 83.55729 565.825 84.40104Q566.6219 85.24479 566.6219 86.791664Q566.6219 86.885414 566.6219 87.072914L561.98126 87.072914Q562.04376 88.104164 562.5594 88.65104Q563.075 89.18229 563.85626 89.18229Q564.4344 89.18229 564.84064 88.885414Q565.2625 88.572914 565.4969 87.916664ZM562.04376 86.21354L565.5125 86.21354Q565.45 85.416664 565.1219 85.02604Q564.60626 84.416664 563.8094 84.416664Q563.075 84.416664 562.575 84.90104Q562.09064 85.385414 562.04376 86.21354ZM568.23126 89.916664L568.23126 83.697914L569.1844 83.697914L569.1844 84.635414Q569.54376 83.979164 569.84064 83.77604Q570.15314 83.55729 570.52814 83.55729Q571.0594 83.55729 571.60626 83.885414L571.2469 84.86979Q570.85626 84.635414 570.48126 84.635414Q570.1219 84.635414 569.84064 84.854164Q569.575 85.05729 569.46564 85.43229Q569.27814 85.99479 569.27814 86.65104L569.27814 89.916664L568.23126 89.916664Z" fill-rule="nonzero"/><path fill="#fbbc04" d="M496.45 104.916664C496.45 104.36438 496.8977 103.916664 497.45 103.916664L507.45 103.916664C508.0023 103.916664 508.45 104.36438 508.45 104.916664L508.45 114.916664C508.45 115.46895 508.0023 115.916664 507.45 115.916664L497.45 115.916664C496.8977 115.916664 496.45 115.46895 496.45 114.916664Z" fill-rule="nonzero"/><path fill="#1a1a1a" d="M517.3719 113.916664L517.3719 105.322914L520.6219 105.322914Q521.46564 105.322914 521.91876 105.40104Q522.5594 105.510414 522.98126 105.80729Q523.41876 106.104164 523.66876 106.635414Q523.9344 107.166664 523.9344 107.80729Q523.9344 108.90104 523.23126 109.666664Q522.54376 110.416664 520.71564 110.416664L518.5125 110.416664L518.5125 113.916664L517.3719 113.916664ZM518.5125 109.416664L520.73126 109.416664Q521.84064 109.416664 522.29376 109.010414Q522.7625 108.58854 522.7625 107.83854Q522.7625 107.30729 522.48126 106.93229Q522.21564 106.541664 521.77814 106.416664Q521.48126 106.33854 520.71564 106.33854L518.5125 106.33854L518.5125 109.416664ZM525.23126 113.916664L525.23126 107.697914L526.1844 107.697914L526.1844 108.635414Q526.54376 107.979164 526.84064 107.77604Q527.15314 107.55729 527.52814 107.55729Q528.0594 107.55729 528.60626 107.885414L528.2469 108.86979Q527.85626 108.635414 527.48126 108.635414Q527.1219 108.635414 526.84064 108.854164Q526.575 109.05729 526.46564 109.43229Q526.27814 109.99479 526.27814 110.65104L526.27814 113.916664L525.23126 113.916664ZM533.4969 111.916664L534.59064 112.041664Q534.34064 112.99479 533.6375 113.52604Q532.9344 114.05729 531.85626 114.05729Q530.4969 114.05729 529.6844 113.21354Q528.8875 112.36979 528.8875 110.854164Q528.8875 109.291664 529.7 108.43229Q530.5125 107.55729 531.79376 107.55729Q533.04376 107.55729 533.825 108.40104Q534.6219 109.24479 534.6219 110.791664Q534.6219 110.885414 534.6219 111.072914L529.98126 111.072914Q530.04376 112.104164 530.5594 112.65104Q531.075 113.18229 531.85626 113.18229Q532.4344 113.18229 532.84064 112.885414Q533.2625 112.572914 533.4969 111.916664ZM530.04376 110.21354L533.5125 110.21354Q533.45 109.416664 533.1219 109.02604Q532.60626 108.416664 531.8094 108.416664Q531.075 108.416664 530.575 108.90104Q530.09064 109.385414 530.04376 110.21354ZM535.825 112.05729L536.85626 111.90104Q536.95 112.52604 537.34064 112.854164Q537.7469 113.18229 538.48126 113.18229Q539.2 113.18229 539.54376 112.90104Q539.90314 112.604164 539.90314 112.197914Q539.90314 111.83854 539.59064 111.635414Q539.3719 111.49479 538.5125 111.27604Q537.35626 110.979164 536.90314 110.77604Q536.46564 110.55729 536.23126 110.18229Q535.9969 109.80729 535.9969 109.33854Q535.9969 108.93229 536.1844 108.572914Q536.3719 108.21354 536.7 107.979164Q536.95 107.80729 537.3719 107.68229Q537.79376 107.55729 538.29376 107.55729Q539.0125 107.55729 539.5594 107.77604Q540.1219 107.979164 540.3875 108.33854Q540.65314 108.697914 540.7469 109.291664L539.71564 109.43229Q539.65314 108.96354 539.3094 108.697914Q538.98126 108.416664 538.35626 108.416664Q537.6375 108.416664 537.325 108.666664Q537.0125 108.90104 537.0125 109.229164Q537.0125 109.43229 537.1375 109.58854Q537.27814 109.760414 537.54376 109.86979Q537.7 109.93229 538.48126 110.135414Q539.60626 110.447914 540.04376 110.635414Q540.48126 110.822914 540.73126 111.18229Q540.98126 111.541664 540.98126 112.08854Q540.98126 112.61979 540.66876 113.08854Q540.3719 113.541664 539.79376 113.80729Q539.21564 114.05729 538.48126 114.05729Q537.2625 114.05729 536.6219 113.55729Q535.9969 113.041664 535.825 112.05729ZM545.54376 112.979164L545.7 113.90104Q545.2469 113.99479 544.90314 113.99479Q544.325 113.99479 544.0125 113.822914Q543.7 113.635414 543.5594 113.33854Q543.4344 113.041664 543.4344 112.08854L543.4344 108.510414L542.66876 108.510414L542.66876 107.697914L543.4344 107.697914L543.4344 106.15104L544.48126 105.52604L544.48126 107.697914L545.54376 107.697914L545.54376 108.510414L544.48126 108.510414L544.48126 112.15104Q544.48126 112.604164 544.52814 112.729164Q544.59064 112.854164 544.71564 112.93229Q544.84064 113.010414 545.075 113.010414Q545.2625 113.010414 545.54376 112.979164ZM550.4969 111.916664L551.59064 112.041664Q551.34064 112.99479 550.6375 113.52604Q549.9344 114.05729 548.85626 114.05729Q547.4969 114.05729 546.6844 113.21354Q545.8875 112.36979 545.8875 110.854164Q545.8875 109.291664 546.7 108.43229Q547.5125 107.55729 548.79376 107.55729Q550.04376 107.55729 550.825 108.40104Q551.6219 109.24479 551.6219 110.791664Q551.6219 110.885414 551.6219 111.072914L546.98126 111.072914Q547.04376 112.104164 547.5594 112.65104Q548.075 113.18229 548.85626 113.18229Q549.4344 113.18229 549.84064 112.885414Q550.2625 112.572914 550.4969 111.916664ZM547.04376 110.21354L550.5125 110.21354Q550.45 109.416664 550.1219 109.02604Q549.60626 108.416664 548.8094 108.416664Q548.075 108.416664 547.575 108.90104Q547.09064 109.385414 547.04376 110.21354ZM557.4969 111.916664L558.59064 112.041664Q558.34064 112.99479 557.6375 113.52604Q556.9344 114.05729 555.85626 114.05729Q554.4969 114.05729 553.6844 113.21354Q552.8875 112.36979 552.8875 110.854164Q552.8875 109.291664 553.7 108.43229Q554.5125 107.55729 555.79376 107.55729Q557.04376 107.55729 557.825 108.40104Q558.6219 109.24479 558.6219 110.791664Q558.6219 110.885414 558.6219 111.072914L553.98126 111.072914Q554.04376 112.104164 554.5594 112.65104Q555.075 113.18229 555.85626 113.18229Q556.4344 113.18229 556.84064 112.885414Q557.2625 112.572914 557.4969 111.916664ZM554.04376 110.21354L557.5125 110.21354Q557.45 109.416664 557.1219 109.02604Q556.60626 108.416664 555.8094 108.416664Q555.075 108.416664 554.575 108.90104Q554.09064 109.385414 554.04376 110.21354ZM560.23126 113.916664L560.23126 107.697914L561.1844 107.697914L561.1844 108.635414Q561.54376 107.979164 561.84064 107.77604Q562.15314 107.55729 562.52814 107.55729Q563.0594 107.55729 563.60626 107.885414L563.2469 108.86979Q562.85626 108.635414 562.48126 108.635414Q562.1219 108.635414 561.84064 108.854164Q561.575 109.05729 561.46564 109.43229Q561.27814 109.99479 561.27814 110.65104L561.27814 113.916664L560.23126 113.916664ZM568.27814 113.916664L568.27814 113.135414Q567.6844 114.05729 566.54376 114.05729Q565.79376 114.05729 565.16876 113.65104Q564.54376 113.229164 564.2 112.49479Q563.85626 111.760414 563.85626 110.80729Q563.85626 109.885414 564.16876 109.11979Q564.48126 108.354164 565.10626 107.96354Q565.73126 107.55729 566.4969 107.55729Q567.0594 107.55729 567.4969 107.791664Q567.9344 108.02604 568.21564 108.40104L568.21564 105.322914L569.2625 105.322914L569.2625 113.916664L568.27814 113.916664ZM564.95 110.80729Q564.95 112.010414 565.45 112.604164Q565.95 113.18229 566.6375 113.18229Q567.325 113.18229 567.8094 112.61979Q568.29376 112.05729 568.29376 110.90104Q568.29376 109.61979 567.79376 109.02604Q567.3094 108.43229 566.59064 108.43229Q565.8875 108.43229 565.41876 109.010414Q564.95 109.572914 564.95 110.80729ZM575.4969 111.916664L576.59064 112.041664Q576.34064 112.99479 575.6375 113.52604Q574.9344 114.05729 573.85626 114.05729Q572.4969 114.05729 571.6844 113.21354Q570.8875 112.36979 570.8875 110.854164Q570.8875 109.291664 571.7 108.43229Q572.5125 107.55729 573.79376 107.55729Q575.04376 107.55729 575.825 108.40104Q576.6219 109.24479 576.6219 110.791664Q576.6219 110.885414 576.6219 111.072914L571.98126 111.072914Q572.04376 112.104164 572.5594 112.65104Q573.075 113.18229 573.85626 113.18229Q574.4344 113.18229 574.84064 112.885414Q575.2625 112.572914 575.4969 111.916664ZM572.04376 110.21354L575.5125 110.21354Q575.45 109.416664 575.1219 109.02604Q574.60626 108.416664 573.8094 108.416664Q573.075 108.416664 572.575 108.90104Q572.09064 109.385414 572.04376 110.21354ZM578.23126 113.916664L578.23126 107.697914L579.1844 107.697914L579.1844 108.635414Q579.54376 107.979164 579.84064 107.77604Q580.15314 107.55729 580.52814 107.55729Q581.0594 107.55729 581.60626 107.885414L581.2469 108.86979Q580.85626 108.635414 580.48126 108.635414Q580.1219 108.635414 579.84064 108.854164Q579.575 109.05729 579.46564 109.43229Q579.27814 109.99479 579.27814 110.65104L579.27814 113.916664L578.23126 113.916664Z" fill-rule="nonzero"/><path fill="#34a853" d="M496.45 128.91667C496.45 128.36438 496.8977 127.916664 497.45 127.916664L507.45 127.916664C508.0023 127.916664 508.45 128.36438 508.45 128.91667L508.45 138.91667C508.45 139.46895 508.0023 139.91667 507.45 139.91667L497.45 139.91667C496.8977 139.91667 496.45 139.46895 496.45 138.91667Z" fill-rule="nonzero"/><path fill="#1a1a1a" d="M516.9969 135.15105L518.0594 135.0573Q518.1375 135.71355 518.41876 136.1198Q518.7 136.52605 519.27814 136.79167Q519.8719 137.04167 520.60626 137.04167Q521.2469 137.04167 521.7469 136.85417Q522.2469 136.65105 522.48126 136.32292Q522.73126 135.97917 522.73126 135.58855Q522.73126 135.1823 522.4969 134.88542Q522.2625 134.57292 521.73126 134.3698Q521.3719 134.22917 520.1844 133.94792Q519.0125 133.66667 518.54376 133.41667Q517.91876 133.08855 517.6219 132.6198Q517.325 132.13542 517.325 131.54167Q517.325 130.90105 517.6844 130.33855Q518.0594 129.76042 518.7625 129.47917Q519.48126 129.1823 520.34064 129.1823Q521.29376 129.1823 522.02814 129.4948Q522.7625 129.79167 523.15314 130.40105Q523.54376 130.9948 523.575 131.7448L522.48126 131.82292Q522.3875 131.01042 521.8719 130.60417Q521.3719 130.1823 520.3875 130.1823Q519.35626 130.1823 518.8875 130.5573Q518.41876 130.9323 518.41876 131.46355Q518.41876 131.9323 518.7469 132.22917Q519.075 132.52605 520.45 132.83855Q521.84064 133.15105 522.35626 133.38542Q523.10626 133.7448 523.46564 134.27605Q523.825 134.79167 523.825 135.4948Q523.825 136.1823 523.4344 136.79167Q523.04376 137.38542 522.3094 137.72917Q521.575 138.0573 520.65314 138.0573Q519.48126 138.0573 518.6844 137.72917Q517.90314 137.38542 517.45 136.69792Q517.0125 136.01042 516.9969 135.15105ZM525.2469 140.3073L525.2469 131.69792L526.2 131.69792L526.2 132.4948Q526.54376 132.02605 526.96564 131.79167Q527.40314 131.5573 528.0125 131.5573Q528.8094 131.5573 529.41876 131.96355Q530.02814 132.3698 530.325 133.1198Q530.6375 133.8698 530.6375 134.76042Q530.6375 135.71355 530.29376 136.47917Q529.96564 137.2448 529.3094 137.65105Q528.65314 138.0573 527.9344 138.0573Q527.40314 138.0573 526.98126 137.83855Q526.5594 137.60417 526.29376 137.27605L526.29376 140.3073L525.2469 140.3073ZM526.2 134.83855Q526.2 136.04167 526.6844 136.6198Q527.16876 137.1823 527.85626 137.1823Q528.5594 137.1823 529.0594 136.58855Q529.5594 135.9948 529.5594 134.7448Q529.5594 133.5573 529.075 132.97917Q528.59064 132.38542 527.90314 132.38542Q527.23126 132.38542 526.71564 133.01042Q526.2 133.63542 526.2 134.83855ZM536.4969 135.91667L537.59064 136.04167Q537.34064 136.9948 536.6375 137.52605Q535.9344 138.0573 534.85626 138.0573Q533.4969 138.0573 532.6844 137.21355Q531.8875 136.3698 531.8875 134.85417Q531.8875 133.29167 532.7 132.4323Q533.5125 131.5573 534.79376 131.5573Q536.04376 131.5573 536.825 132.40105Q537.6219 133.2448 537.6219 134.79167Q537.6219 134.88542 537.6219 135.07292L532.98126 135.07292Q533.04376 136.10417 533.5594 136.65105Q534.075 137.1823 534.85626 137.1823Q535.4344 137.1823 535.84064 136.88542Q536.2625 136.57292 536.4969 135.91667ZM533.04376 134.21355L536.5125 134.21355Q536.45 133.41667 536.1219 133.02605Q535.60626 132.41667 534.8094 132.41667Q534.075 132.41667 533.575 132.90105Q533.09064 133.38542 533.04376 134.21355ZM539.21564 137.91667L539.21564 129.32292L540.27814 129.32292L540.27814 137.91667L539.21564 137.91667ZM546.4969 135.91667L547.59064 136.04167Q547.34064 136.9948 546.6375 137.52605Q545.9344 138.0573 544.85626 138.0573Q543.4969 138.0573 542.6844 137.21355Q541.8875 136.3698 541.8875 134.85417Q541.8875 133.29167 542.7 132.4323Q543.5125 131.5573 544.79376 131.5573Q546.04376 131.5573 546.825 132.40105Q547.6219 133.2448 547.6219 134.79167Q547.6219 134.88542 547.6219 135.07292L542.98126 135.07292Q543.04376 136.10417 543.5594 136.65105Q544.075 137.1823 544.85626 137.1823Q545.4344 137.1823 545.84064 136.88542Q546.2625 136.57292 546.4969 135.91667ZM543.04376 134.21355L546.5125 134.21355Q546.45 133.41667 546.1219 133.02605Q545.60626 132.41667 544.8094 132.41667Q544.075 132.41667 543.575 132.90105Q543.09064 133.38542 543.04376 134.21355ZM549.23126 137.91667L549.23126 131.69792L550.1844 131.69792L550.1844 132.63542Q550.54376 131.97917 550.84064 131.77605Q551.15314 131.5573 551.52814 131.5573Q552.0594 131.5573 552.60626 131.88542L552.2469 132.8698Q551.85626 132.63542 551.48126 132.63542Q551.1219 132.63542 550.84064 132.85417Q550.575 133.0573 550.46564 133.4323Q550.27814 133.9948 550.27814 134.65105L550.27814 137.91667L549.23126 137.91667Z" fill-rule="nonzero"/><path fill="#ff6d01" d="M496.45 152.91667C496.45 152.36438 496.8977 151.91667 497.45 151.91667L507.45 151.91667C508.0023 151.91667 508.45 152.36438 508.45 152.91667L508.45 162.91667C508.45 163.46895 508.0023 163.91667 507.45 163.91667L497.45 163.91667C496.8977 163.91667 496.45 163.46895 496.45 162.91667Z" fill-rule="nonzero"/><path fill="#1a1a1a" d="M519.825 161.91667L516.4969 153.32292L517.73126 153.32292L519.96564 159.57292Q520.23126 160.32292 520.41876 160.97917Q520.6219 160.27605 520.8875 159.57292L523.2 153.32292L524.35626 153.32292L520.9969 161.91667L519.825 161.91667ZM524.23126 161.91667L524.23126 155.69792L525.1844 155.69792L525.1844 156.63542Q525.54376 155.97917 525.84064 155.77605Q526.15314 155.5573 526.52814 155.5573Q527.0594 155.5573 527.60626 155.88542L527.2469 156.8698Q526.85626 156.63542 526.48126 156.63542Q526.1219 156.63542 525.84064 156.85417Q525.575 157.0573 525.46564 157.4323Q525.27814 157.9948 525.27814 158.65105L525.27814 161.91667L524.23126 161.91667ZM528.2469 154.54167L528.2469 153.32292L529.3094 153.32292L529.3094 154.54167L528.2469 154.54167ZM528.2469 161.91667L528.2469 155.69792L529.3094 155.69792L529.3094 161.91667L528.2469 161.91667ZM531.23126 154.5573L531.23126 153.32292L532.29376 153.32292L532.29376 154.5573L531.23126 154.5573ZM529.90314 164.33855L530.09064 163.4323Q530.41876 163.51042 530.59064 163.51042Q530.91876 163.51042 531.075 163.29167Q531.23126 163.08855 531.23126 162.22917L531.23126 155.69792L532.29376 155.69792L532.29376 162.26042Q532.29376 163.40105 531.9969 163.85417Q531.60626 164.44792 530.73126 164.44792Q530.29376 164.44792 529.90314 164.33855ZM537.04376 162.4323L538.075 162.58855Q538.1375 163.0573 538.4344 163.27605Q538.825 163.57292 539.4969 163.57292Q540.23126 163.57292 540.6219 163.27605Q541.02814 162.97917 541.16876 162.46355Q541.2625 162.13542 541.2469 161.10417Q540.5594 161.91667 539.52814 161.91667Q538.2469 161.91667 537.54376 160.9948Q536.84064 160.0573 536.84064 158.77605Q536.84064 157.88542 537.15314 157.13542Q537.48126 156.3698 538.09064 155.96355Q538.7 155.5573 539.52814 155.5573Q540.6375 155.5573 541.35626 156.44792L541.35626 155.69792L542.325 155.69792L542.325 161.07292Q542.325 162.52605 542.02814 163.13542Q541.73126 163.7448 541.09064 164.08855Q540.45 164.44792 539.5125 164.44792Q538.40314 164.44792 537.71564 163.94792Q537.02814 163.44792 537.04376 162.4323ZM537.91876 158.69792Q537.91876 159.91667 538.40314 160.47917Q538.8875 161.04167 539.6219 161.04167Q540.35626 161.04167 540.84064 160.47917Q541.34064 159.91667 541.34064 158.72917Q541.34064 157.58855 540.825 157.01042Q540.325 156.4323 539.60626 156.4323Q538.90314 156.4323 538.40314 157.01042Q537.91876 157.57292 537.91876 158.69792ZM548.4969 159.91667L549.59064 160.04167Q549.34064 160.9948 548.6375 161.52605Q547.9344 162.0573 546.85626 162.0573Q545.4969 162.0573 544.6844 161.21355Q543.8875 160.3698 543.8875 158.85417Q543.8875 157.29167 544.7 156.4323Q545.5125 155.5573 546.79376 155.5573Q548.04376 155.5573 548.825 156.40105Q549.6219 157.2448 549.6219 158.79167Q549.6219 158.88542 549.6219 159.07292L544.98126 159.07292Q545.04376 160.10417 545.5594 160.65105Q546.075 161.1823 546.85626 161.1823Q547.4344 161.1823 547.84064 160.88542Q548.2625 160.57292 548.4969 159.91667ZM545.04376 158.21355L548.5125 158.21355Q548.45 157.41667 548.1219 157.02605Q547.60626 156.41667 546.8094 156.41667Q546.075 156.41667 545.575 156.90105Q545.09064 157.38542 545.04376 158.21355ZM555.4969 159.91667L556.59064 160.04167Q556.34064 160.9948 555.6375 161.52605Q554.9344 162.0573 553.85626 162.0573Q552.4969 162.0573 551.6844 161.21355Q550.8875 160.3698 550.8875 158.85417Q550.8875 157.29167 551.7 156.4323Q552.5125 155.5573 553.79376 155.5573Q555.04376 155.5573 555.825 156.40105Q556.6219 157.2448 556.6219 158.79167Q556.6219 158.88542 556.6219 159.07292L551.98126 159.07292Q552.04376 160.10417 552.5594 160.65105Q553.075 161.1823 553.85626 161.1823Q554.4344 161.1823 554.84064 160.88542Q555.2625 160.57292 555.4969 159.91667ZM552.04376 158.21355L555.5125 158.21355Q555.45 157.41667 555.1219 157.02605Q554.60626 156.41667 553.8094 156.41667Q553.075 156.41667 552.575 156.90105Q552.09064 157.38542 552.04376 158.21355ZM557.825 160.0573L558.85626 159.90105Q558.95 160.52605 559.34064 160.85417Q559.7469 161.1823 560.48126 161.1823Q561.2 161.1823 561.54376 160.90105Q561.90314 160.60417 561.90314 160.19792Q561.90314 159.83855 561.59064 159.63542Q561.3719 159.4948 560.5125 159.27605Q559.35626 158.97917 558.90314 158.77605Q558.46564 158.5573 558.23126 158.1823Q557.9969 157.8073 557.9969 157.33855Q557.9969 156.9323 558.1844 156.57292Q558.3719 156.21355 558.7 155.97917Q558.95 155.8073 559.3719 155.6823Q559.79376 155.5573 560.29376 155.5573Q561.0125 155.5573 561.5594 155.77605Q562.1219 155.97917 562.3875 156.33855Q562.65314 156.69792 562.7469 157.29167L561.71564 157.4323Q561.65314 156.96355 561.3094 156.69792Q560.98126 156.41667 560.35626 156.41667Q559.6375 156.41667 559.325 156.66667Q559.0125 156.90105 559.0125 157.22917Q559.0125 157.4323 559.1375 157.58855Q559.27814 157.76042 559.54376 157.8698Q559.7 157.9323 560.48126 158.13542Q561.60626 158.44792 562.04376 158.63542Q562.48126 158.82292 562.73126 159.1823Q562.98126 159.54167 562.98126 160.08855Q562.98126 160.6198 562.66876 161.08855Q562.3719 161.54167 561.79376 161.8073Q561.21564 162.0573 560.48126 162.0573Q559.2625 162.0573 558.6219 161.5573Q557.9969 161.04167 557.825 160.0573ZM567.54376 160.97917L567.7 161.90105Q567.2469 161.9948 566.90314 161.9948Q566.325 161.9948 566.0125 161.82292Q565.7 161.63542 565.5594 161.33855Q565.4344 161.04167 565.4344 160.08855L565.4344 156.51042L564.66876 156.51042L564.66876 155.69792L565.4344 155.69792L565.4344 154.15105L566.48126 153.52605L566.48126 155.69792L567.54376 155.69792L567.54376 156.51042L566.48126 156.51042L566.48126 160.15105Q566.48126 160.60417 566.52814 160.72917Q566.59064 160.85417 566.71564 160.9323Q566.84064 161.01042 567.075 161.01042Q567.2625 161.01042 567.54376 160.97917Z" fill-rule="nonzero"/><path fill="#757575" d="M24.190624 37.55L18.64375 23.2375L20.690624 23.2375L24.409374 33.628124Q24.8625 34.878124 25.159374 35.971874Q25.4875 34.8 25.940624 33.628124L29.8 23.2375L31.7375 23.2375L26.128124 37.55L24.190624 37.55ZM39.971874 34.20625L41.784374 34.440624Q41.3625 36.01875 40.190624 36.909374Q39.034374 37.784374 37.221874 37.784374Q34.95625 37.784374 33.6125 36.39375Q32.284374 34.9875 32.284374 32.45625Q32.284374 29.83125 33.628124 28.39375Q34.971874 26.940624 37.128124 26.940624Q39.20625 26.940624 40.51875 28.3625Q41.846874 29.76875 41.846874 32.346874Q41.846874 32.503124 41.83125 32.815624L34.096874 32.815624Q34.190624 34.51875 35.065624 35.425Q35.940624 36.33125 37.2375 36.33125Q38.20625 36.33125 38.878124 35.83125Q39.565624 35.315624 39.971874 34.20625ZM34.190624 31.3625L39.9875 31.3625Q39.878124 30.065624 39.33125 29.409374Q38.4875 28.39375 37.14375 28.39375Q35.940624 28.39375 35.1125 29.20625Q34.284374 30.003124 34.190624 31.3625ZM43.846874 37.55L43.846874 27.175L45.425 27.175L45.425 28.753124Q46.034374 27.64375 46.55 27.3Q47.065624 26.940624 47.675 26.940624Q48.565624 26.940624 49.4875 27.503124L48.878124 29.14375Q48.2375 28.753124 47.596874 28.753124Q47.01875 28.753124 46.55 29.1125Q46.096874 29.45625 45.89375 30.065624Q45.6125 31.003124 45.6125 32.1125L45.6125 37.55L43.846874 37.55ZM57.596874 37.55L57.596874 36.2375Q56.6125 37.784374 54.690624 37.784374Q53.45625 37.784374 52.409374 37.096874Q51.378124 36.409374 50.8 35.190624Q50.2375 33.971874 50.2375 32.378124Q50.2375 30.815624 50.753124 29.55Q51.26875 28.284374 52.3 27.6125Q53.346874 26.940624 54.6125 26.940624Q55.55 26.940624 56.284374 27.346874Q57.01875 27.7375 57.4875 28.3625L57.4875 23.2375L59.221874 23.2375L59.221874 37.55L57.596874 37.55ZM52.034374 32.378124Q52.034374 34.3625 52.878124 35.346874Q53.721874 36.33125 54.8625 36.33125Q56.01875 36.33125 56.815624 35.39375Q57.628124 34.45625 57.628124 32.51875Q57.628124 30.39375 56.8 29.39375Q55.9875 28.39375 54.784374 28.39375Q53.6125 28.39375 52.815624 29.3625Q52.034374 30.315624 52.034374 32.378124ZM68.97188 34.20625L70.78438 34.440624Q70.3625 36.01875 69.19063 36.909374Q68.03438 37.784374 66.22188 37.784374Q63.95625 37.784374 62.6125 36.39375Q61.284374 34.9875 61.284374 32.45625Q61.284374 29.83125 62.628124 28.39375Q63.971874 26.940624 66.12813 26.940624Q68.20625 26.940624 69.51875 28.3625Q70.84688 29.76875 70.84688 32.346874Q70.84688 32.503124 70.83125 32.815624L63.096874 32.815624Q63.190624 34.51875 64.06563 35.425Q64.94063 36.33125 66.2375 36.33125Q67.20625 36.33125 67.87813 35.83125Q68.56563 35.315624 68.97188 34.20625ZM63.190624 31.3625L68.9875 31.3625Q68.87813 30.065624 68.33125 29.409374Q67.4875 28.39375 66.14375 28.39375Q64.94063 28.39375 64.1125 29.20625Q63.284374 30.003124 63.190624 31.3625ZM72.83125 37.55L72.83125 23.2375L74.58125 23.2375L74.58125 37.55L72.83125 37.55ZM76.87813 25.253124L76.87813 23.2375L78.64375 23.2375L78.64375 25.253124L76.87813 25.253124ZM76.87813 37.55L76.87813 27.175L78.64375 27.175L78.64375 37.55L76.87813 37.55ZM80.8625 37.55L80.8625 27.175L82.45625 27.175L82.45625 28.659374Q83.59688 26.940624 85.75313 26.940624Q86.69063 26.940624 87.47188 27.284374Q88.26875 27.6125 88.65938 28.159374Q89.05 28.70625 89.20625 29.45625Q89.3 29.95625 89.3 31.175L89.3 37.55L87.53438 37.55L87.53438 31.2375Q87.53438 30.159374 87.33125 29.628124Q87.12813 29.096874 86.59688 28.784374Q86.08125 28.471874 85.37813 28.471874Q84.25313 28.471874 83.44063 29.190624Q82.62813 29.89375 82.62813 31.878124L82.62813 37.55L80.8625 37.55ZM90.55 38.409374L92.25313 38.659374Q92.3625 39.45625 92.84688 39.815624Q93.50313 40.3 94.64375 40.3Q95.8625 40.3 96.51875 39.815624Q97.19063 39.33125 97.425 38.45625Q97.56563 37.909374 97.55 36.190624Q96.39375 37.55 94.675 37.55Q92.53438 37.55 91.3625 36.003124Q90.19063 34.45625 90.19063 32.3Q90.19063 30.815624 90.72188 29.565624Q91.26875 28.315624 92.28438 27.628124Q93.31563 26.940624 94.69063 26.940624Q96.51875 26.940624 97.72188 28.425L97.72188 27.175L99.33125 27.175L99.33125 36.14375Q99.33125 38.565624 98.83125 39.565624Q98.34688 40.58125 97.26875 41.159374Q96.20625 41.753124 94.64375 41.753124Q92.8 41.753124 91.64375 40.925Q90.50313 40.096874 90.55 38.409374ZM92.00313 32.175Q92.00313 34.221874 92.81563 35.159374Q93.62813 36.096874 94.84688 36.096874Q96.05 36.096874 96.8625 35.159374Q97.69063 34.221874 97.69063 32.2375Q97.69063 30.33125 96.84688 29.3625Q96.00313 28.39375 94.81563 28.39375Q93.64375 28.39375 92.81563 29.346874Q92.00313 30.3 92.00313 32.175ZM110.75313 37.55L106.8 27.175L108.65938 27.175L110.89375 33.39375Q111.25313 34.39375 111.55 35.471874Q111.78438 34.659374 112.20625 33.503124L114.50313 27.175L116.31563 27.175L112.39375 37.55L110.75313 37.55ZM123.64375 36.26875Q122.65938 37.096874 121.75313 37.440624Q120.84688 37.784374 119.81563 37.784374Q118.1125 37.784374 117.19063 36.95625Q116.26875 36.1125 116.26875 34.815624Q116.26875 34.05 116.6125 33.425Q116.97188 32.8 117.53438 32.425Q118.09688 32.034374 118.8 31.83125Q119.31563 31.70625 120.3625 31.565624Q122.4875 31.315624 123.4875 30.971874Q123.50313 30.6125 123.50313 30.503124Q123.50313 29.440624 123.00313 28.9875Q122.33125 28.39375 121.00313 28.39375Q119.75313 28.39375 119.15938 28.83125Q118.58125 29.26875 118.3 30.378124L116.58125 30.14375Q116.81563 29.034374 117.34688 28.3625Q117.87813 27.675 118.89375 27.315624Q119.90938 26.940624 121.25313 26.940624Q122.58125 26.940624 123.40938 27.253124Q124.2375 27.565624 124.62813 28.05Q125.01875 28.51875 125.175 29.2375Q125.26875 29.690624 125.26875 30.8625L125.26875 33.20625Q125.26875 35.659374 125.37813 36.315624Q125.4875 36.95625 125.83125 37.55L123.9875 37.55Q123.72188 37.003124 123.64375 36.26875ZM123.4875 32.346874Q122.53438 32.7375 120.6125 33.003124Q119.53438 33.159374 119.08125 33.3625Q118.64375 33.55 118.39375 33.925Q118.14375 34.3 118.14375 34.76875Q118.14375 35.471874 118.675 35.940624Q119.20625 36.409374 120.2375 36.409374Q121.25313 36.409374 122.03438 35.971874Q122.83125 35.51875 123.20625 34.753124Q123.4875 34.14375 123.4875 32.9875L123.4875 32.346874ZM127.8625 37.55L127.8625 27.175L129.45625 27.175L129.45625 28.659374Q130.59688 26.940624 132.75313 26.940624Q133.69063 26.940624 134.47188 27.284374Q135.26875 27.6125 135.65938 28.159374Q136.05 28.70625 136.20625 29.45625Q136.3 29.95625 136.3 31.175L136.3 37.55L134.53438 37.55L134.53438 31.2375Q134.53438 30.159374 134.33125 29.628124Q134.12813 29.096874 133.59688 28.784374Q133.08125 28.471874 132.37813 28.471874Q131.25313 28.471874 130.44063 29.190624Q129.62813 29.89375 129.62813 31.878124L129.62813 37.55L127.8625 37.55ZM150.59688 37.55L150.59688 36.2375Q149.6125 37.784374 147.69063 37.784374Q146.45625 37.784374 145.40938 37.096874Q144.37813 36.409374 143.8 35.190624Q143.2375 33.971874 143.2375 32.378124Q143.2375 30.815624 143.75313 29.55Q144.26875 28.284374 145.3 27.6125Q146.34688 26.940624 147.6125 26.940624Q148.55 26.940624 149.28438 27.346874Q150.01875 27.7375 150.4875 28.3625L150.4875 23.2375L152.22188 23.2375L152.22188 37.55L150.59688 37.55ZM145.03438 32.378124Q145.03438 34.3625 145.87813 35.346874Q146.72188 36.33125 147.8625 36.33125Q149.01875 36.33125 149.81563 35.39375Q150.62813 34.45625 150.62813 32.51875Q150.62813 30.39375 149.8 29.39375Q148.9875 28.39375 147.78438 28.39375Q146.6125 28.39375 145.81563 29.3625Q145.03438 30.315624 145.03438 32.378124ZM161.97188 34.20625L163.78438 34.440624Q163.3625 36.01875 162.19063 36.909374Q161.03438 37.784374 159.22188 37.784374Q156.95625 37.784374 155.6125 36.39375Q154.28438 34.9875 154.28438 32.45625Q154.28438 29.83125 155.62813 28.39375Q156.97188 26.940624 159.12813 26.940624Q161.20625 26.940624 162.51875 28.3625Q163.84688 29.76875 163.84688 32.346874Q163.84688 32.503124 163.83125 32.815624L156.09688 32.815624Q156.19063 34.51875 157.06563 35.425Q157.94063 36.33125 159.2375 36.33125Q160.20625 36.33125 160.87813 35.83125Q161.56563 35.315624 161.97188 34.20625ZM156.19063 31.3625L161.9875 31.3625Q161.87813 30.065624 161.33125 29.409374Q160.4875 28.39375 159.14375 28.39375Q157.94063 28.39375 157.1125 29.20625Q156.28438 30.003124 156.19063 31.3625ZM172.15938 37.55L172.15938 23.2375L174.05 23.2375L174.05 29.1125L181.4875 29.1125L181.4875 23.2375L183.37813 23.2375L183.37813 37.55L181.4875 37.55L181.4875 30.8L174.05 30.8L174.05 37.55L172.15938 37.55ZM191.97188 34.20625L193.78438 34.440624Q193.3625 36.01875 192.19063 36.909374Q191.03438 37.784374 189.22188 37.784374Q186.95625 37.784374 185.6125 36.39375Q184.28438 34.9875 184.28438 32.45625Q184.28438 29.83125 185.62813 28.39375Q186.97188 26.940624 189.12813 26.940624Q191.20625 26.940624 192.51875 28.3625Q193.84688 29.76875 193.84688 32.346874Q193.84688 32.503124 193.83125 32.815624L186.09688 32.815624Q186.19063 34.51875 187.06563 35.425Q187.94063 36.33125 189.2375 36.33125Q190.20625 36.33125 190.87813 35.83125Q191.56563 35.315624 191.97188 34.20625ZM186.19063 31.3625L191.9875 31.3625Q191.87813 30.065624 191.33125 29.409374Q190.4875 28.39375 189.14375 28.39375Q187.94063 28.39375 187.1125 29.20625Q186.28438 30.003124 186.19063 31.3625ZM194.69063 37.55L198.4875 32.159374L194.9875 27.175L197.175 27.175L198.76875 29.6125Q199.22188 30.3 199.4875 30.76875Q199.925 30.128124 200.28438 29.628124L202.03438 27.175L204.12813 27.175L200.55 32.065624L204.40938 37.55L202.25313 37.55L200.1125 34.33125L199.55 33.45625L196.83125 37.55L194.69063 37.55ZM211.64375 36.26875Q210.65938 37.096874 209.75313 37.440624Q208.84688 37.784374 207.81563 37.784374Q206.1125 37.784374 205.19063 36.95625Q204.26875 36.1125 204.26875 34.815624Q204.26875 34.05 204.6125 33.425Q204.97188 32.8 205.53438 32.425Q206.09688 32.034374 206.8 31.83125Q207.31563 31.70625 208.3625 31.565624Q210.4875 31.315624 211.4875 30.971874Q211.50313 30.6125 211.50313 30.503124Q211.50313 29.440624 211.00313 28.9875Q210.33125 28.39375 209.00313 28.39375Q207.75313 28.39375 207.15938 28.83125Q206.58125 29.26875 206.3 30.378124L204.58125 30.14375Q204.81563 29.034374 205.34688 28.3625Q205.87813 27.675 206.89375 27.315624Q207.90938 26.940624 209.25313 26.940624Q210.58125 26.940624 211.40938 27.253124Q212.2375 27.565624 212.62813 28.05Q213.01875 28.51875 213.175 29.2375Q213.26875 29.690624 213.26875 30.8625L213.26875 33.20625Q213.26875 35.659374 213.37813 36.315624Q213.4875 36.95625 213.83125 37.55L211.9875 37.55Q211.72188 37.003124 211.64375 36.26875ZM211.4875 32.346874Q210.53438 32.7375 208.6125 33.003124Q207.53438 33.159374 207.08125 33.3625Q206.64375 33.55 206.39375 33.925Q206.14375 34.3 206.14375 34.76875Q206.14375 35.471874 206.675 35.940624Q207.20625 36.409374 208.2375 36.409374Q209.25313 36.409374 210.03438 35.971874Q210.83125 35.51875 211.20625 34.753124Q211.4875 34.14375 211.4875 32.9875L211.4875 32.346874ZM222.59688 37.55L222.59688 36.2375Q221.6125 37.784374 219.69063 37.784374Q218.45625 37.784374 217.40938 37.096874Q216.37813 36.409374 215.8 35.190624Q215.2375 33.971874 215.2375 32.378124Q215.2375 30.815624 215.75313 29.55Q216.26875 28.284374 217.3 27.6125Q218.34688 26.940624 219.6125 26.940624Q220.55 26.940624 221.28438 27.346874Q222.01875 27.7375 222.4875 28.3625L222.4875 23.2375L224.22188 23.2375L224.22188 37.55L222.59688 37.55ZM217.03438 32.378124Q217.03438 34.3625 217.87813 35.346874Q218.72188 36.33125 219.8625 36.33125Q221.01875 36.33125 221.81563 35.39375Q222.62813 34.45625 222.62813 32.51875Q222.62813 30.39375 221.8 29.39375Q220.9875 28.39375 219.78438 28.39375Q218.6125 28.39375 217.81563 29.3625Q217.03438 30.315624 217.03438 32.378124ZM232.55 38.409374L234.25313 38.659374Q234.3625 39.45625 234.84688 39.815624Q235.50313 40.3 236.64375 40.3Q237.8625 40.3 238.51875 39.815624Q239.19063 39.33125 239.425 38.45625Q239.56563 37.909374 239.55 36.190624Q238.39375 37.55 236.675 37.55Q234.53438 37.55 233.3625 36.003124Q232.19063 34.45625 232.19063 32.3Q232.19063 30.815624 232.72188 29.565624Q233.26875 28.315624 234.28438 27.628124Q235.31563 26.940624 236.69063 26.940624Q238.51875 26.940624 239.72188 28.425L239.72188 27.175L241.33125 27.175L241.33125 36.14375Q241.33125 38.565624 240.83125 39.565624Q240.34688 40.58125 239.26875 41.159374Q238.20625 41.753124 236.64375 41.753124Q234.8 41.753124 233.64375 40.925Q232.50313 40.096874 232.55 38.409374ZM234.00313 32.175Q234.00313 34.221874 234.81563 35.159374Q235.62813 36.096874 236.84688 36.096874Q238.05 36.096874 238.8625 35.159374Q239.69063 34.221874 239.69063 32.2375Q239.69063 30.33125 238.84688 29.3625Q238.00313 28.39375 236.81563 28.39375Q235.64375 28.39375 234.81563 29.346874Q234.00313 30.3 234.00313 32.175ZM250.97188 34.20625L252.78438 34.440624Q252.3625 36.01875 251.19063 36.909374Q250.03438 37.784374 248.22188 37.784374Q245.95625 37.784374 244.6125 36.39375Q243.28438 34.9875 243.28438 32.45625Q243.28438 29.83125 244.62813 28.39375Q245.97188 26.940624 248.12813 26.940624Q250.20625 26.940624 251.51875 28.3625Q252.84688 29.76875 252.84688 32.346874Q252.84688 32.503124 252.83125 32.815624L245.09688 32.815624Q245.19063 34.51875 246.06563 35.425Q246.94063 36.33125 248.2375 36.33125Q249.20625 36.33125 249.87813 35.83125Q250.56563 35.315624 250.97188 34.20625ZM245.19063 31.3625L250.9875 31.3625Q250.87813 30.065624 250.33125 29.409374Q249.4875 28.39375 248.14375 28.39375Q246.94063 28.39375 246.1125 29.20625Q245.28438 30.003124 245.19063 31.3625ZM256.4875 37.55L254.8625 37.55L254.8625 23.2375L256.6125 23.2375L256.6125 28.346874Q257.7375 26.940624 259.45624 26.940624Q260.40936 26.940624 261.26874 27.33125Q262.1281 27.721874 262.675 28.425Q263.22186 29.1125 263.53436 30.096874Q263.84686 31.08125 263.84686 32.20625Q263.84686 34.878124 262.53436 36.33125Q261.22186 37.784374 259.3781 37.784374Q257.53436 37.784374 256.4875 36.253124L256.4875 37.55ZM256.47186 32.284374Q256.47186 34.14375 256.97186 34.9875Q257.8156 36.33125 259.22186 36.33125Q260.3781 36.33125 261.20624 35.33125Q262.05 34.33125 262.05 32.346874Q262.05 30.315624 261.2375 29.3625Q260.4406 28.39375 259.3 28.39375Q258.14374 28.39375 257.3 29.39375Q256.47186 30.39375 256.47186 32.284374ZM265.84686 37.55L265.84686 27.175L267.425 27.175L267.425 28.753124Q268.03436 27.64375 268.55 27.3Q269.0656 26.940624 269.675 26.940624Q270.5656 26.940624 271.4875 27.503124L270.8781 29.14375Q270.2375 28.753124 269.59686 28.753124Q269.01874 28.753124 268.55 29.1125Q268.09686 29.45625 267.89374 30.065624Q267.6125 31.003124 267.6125 32.1125L267.6125 37.55L265.84686 37.55ZM279.65936 37.55L279.65936 36.01875Q278.45624 37.784374 276.3781 37.784374Q275.45624 37.784374 274.65936 37.440624Q273.8625 37.08125 273.47186 36.55Q273.09686 36.01875 272.9406 35.2375Q272.83124 34.721874 272.83124 33.596874L272.83124 27.175L274.58124 27.175L274.58124 32.925Q274.58124 34.3 274.6906 34.784374Q274.8625 35.471874 275.39374 35.878124Q275.9406 36.26875 276.72186 36.26875Q277.51874 36.26875 278.20624 35.8625Q278.90936 35.45625 279.1906 34.76875Q279.4875 34.065624 279.4875 32.7375L279.4875 27.175L281.2375 27.175L281.2375 37.55L279.65936 37.55ZM282.8781 25.253124L282.8781 23.2375L284.64374 23.2375L284.64374 25.253124L282.8781 25.253124ZM282.8781 37.55L282.8781 27.175L284.64374 27.175L284.64374 37.55L282.8781 37.55ZM286.8781 37.55L286.8781 23.2375L288.64374 23.2375L288.64374 31.39375L292.8 27.175L295.0656 27.175L291.1125 31.01875L295.47186 37.55L293.3 37.55L289.8781 32.253124L288.64374 33.440624L288.64374 37.55L286.8781 37.55ZM303.97186 34.20625L305.78436 34.440624Q305.3625 36.01875 304.1906 36.909374Q303.03436 37.784374 301.22186 37.784374Q298.95624 37.784374 297.6125 36.39375Q296.28436 34.9875 296.28436 32.45625Q296.28436 29.83125 297.6281 28.39375Q298.97186 26.940624 301.1281 26.940624Q303.20624 26.940624 304.51874 28.3625Q305.84686 29.76875 305.84686 32.346874Q305.84686 32.503124 305.83124 32.815624L298.09686 32.815624Q298.1906 34.51875 299.0656 35.425Q299.9406 36.33125 301.2375 36.33125Q302.20624 36.33125 302.8781 35.83125Q303.5656 35.315624 303.97186 34.20625ZM298.1906 31.3625L303.9875 31.3625Q303.8781 30.065624 303.33124 29.409374Q302.4875 28.39375 301.14374 28.39375Q299.9406 28.39375 299.1125 29.20625Q298.28436 30.003124 298.1906 31.3625ZM307.84686 37.55L307.84686 27.175L309.425 27.175L309.425 28.753124Q310.03436 27.64375 310.55 27.3Q311.0656 26.940624 311.675 26.940624Q312.5656 26.940624 313.4875 27.503124L312.8781 29.14375Q312.2375 28.753124 311.59686 28.753124Q311.01874 28.753124 310.55 29.1125Q310.09686 29.45625 309.89374 30.065624Q309.6125 31.003124 309.6125 32.1125L309.6125 37.55L307.84686 37.55ZM314.15936 34.45625L315.90936 34.175Q316.05 35.221874 316.72186 35.784374Q317.39374 36.33125 318.59686 36.33125Q319.8 36.33125 320.3781 35.846874Q320.97186 35.346874 320.97186 34.690624Q320.97186 34.096874 320.45624 33.753124Q320.09686 33.51875 318.65936 33.159374Q316.72186 32.659374 315.97186 32.315624Q315.2375 31.95625 314.84686 31.33125Q314.45624 30.690624 314.45624 29.925Q314.45624 29.2375 314.76874 28.64375Q315.09686 28.05 315.64374 27.659374Q316.05 27.3625 316.7531 27.159374Q317.47186 26.940624 318.28436 26.940624Q319.5031 26.940624 320.425 27.3Q321.34686 27.64375 321.78436 28.253124Q322.22186 28.846874 322.39374 29.846874L320.675 30.08125Q320.55 29.284374 319.9875 28.846874Q319.425 28.39375 318.40936 28.39375Q317.1906 28.39375 316.675 28.8Q316.15936 29.190624 316.15936 29.721874Q316.15936 30.065624 316.3781 30.346874Q316.58124 30.628124 317.05 30.815624Q317.3156 30.909374 318.59686 31.253124Q320.47186 31.753124 321.20624 32.08125Q321.9406 32.39375 322.3625 33.003124Q322.78436 33.596874 322.78436 34.503124Q322.78436 35.378124 322.26874 36.159374Q321.7531 36.940624 320.78436 37.3625Q319.8156 37.784374 318.59686 37.784374Q316.58124 37.784374 315.51874 36.940624Q314.45624 36.096874 314.15936 34.45625ZM328.70624 35.971874L328.95624 37.534374Q328.22186 37.690624 327.6281 37.690624Q326.675 37.690624 326.14374 37.39375Q325.6281 37.08125 325.40936 36.596874Q325.1906 36.096874 325.1906 34.51875L325.1906 28.55L323.90936 28.55L323.90936 27.175L325.1906 27.175L325.1906 24.6125L326.9406 23.55L326.9406 27.175L328.70624 27.175L328.70624 28.55L326.9406 28.55L326.9406 34.6125Q326.9406 35.3625 327.03436 35.58125Q327.1281 35.784374 327.33124 35.925Q327.55 36.05 327.9406 36.05Q328.22186 36.05 328.70624 35.971874ZM330.78436 41.55L330.59686 39.89375Q331.175 40.05 331.59686 40.05Q332.1906 40.05 332.53436 39.846874Q332.89374 39.659374 333.1125 39.315624Q333.28436 39.05 333.65936 38.003124Q333.70624 37.846874 333.8156 37.565624L329.8781 27.175L331.76874 27.175L333.925 33.190624Q334.34686 34.33125 334.675 35.58125Q334.9875 34.378124 335.39374 33.221874L337.6125 27.175L339.3781 27.175L335.425 37.721874Q334.8 39.440624 334.4406 40.08125Q333.97186 40.95625 333.3625 41.346874Q332.76874 41.753124 331.925 41.753124Q331.40936 41.753124 330.78436 41.55ZM340.8625 41.51875L340.8625 27.175L342.47186 27.175L342.47186 28.51875Q343.03436 27.7375 343.7375 27.346874Q344.45624 26.940624 345.47186 26.940624Q346.8 26.940624 347.8156 27.628124Q348.83124 28.315624 349.34686 29.565624Q349.8781 30.8 349.8781 32.284374Q349.8781 33.878124 349.3 35.159374Q348.7375 36.425 347.64374 37.1125Q346.55 37.784374 345.34686 37.784374Q344.47186 37.784374 343.76874 37.409374Q343.08124 37.034374 342.6281 36.471874L342.6281 41.51875L340.8625 41.51875ZM342.45624 32.425Q342.45624 34.425 343.26874 35.378124Q344.08124 36.33125 345.2375 36.33125Q346.40936 36.33125 347.2375 35.346874Q348.08124 34.3625 348.08124 32.26875Q348.08124 30.3 347.2531 29.315624Q346.4406 28.315624 345.3156 28.315624Q344.1906 28.315624 343.3156 29.378124Q342.45624 30.425 342.45624 32.425ZM358.97186 34.20625L360.78436 34.440624Q360.3625 36.01875 359.1906 36.909374Q358.03436 37.784374 356.22186 37.784374Q353.95624 37.784374 352.6125 36.39375Q351.28436 34.9875 351.28436 32.45625Q351.28436 29.83125 352.6281 28.39375Q353.97186 26.940624 356.1281 26.940624Q358.20624 26.940624 359.51874 28.3625Q360.84686 29.76875 360.84686 32.346874Q360.84686 32.503124 360.83124 32.815624L353.09686 32.815624Q353.1906 34.51875 354.0656 35.425Q354.9406 36.33125 356.2375 36.33125Q357.20624 36.33125 357.8781 35.83125Q358.5656 35.315624 358.97186 34.20625ZM353.1906 31.3625L358.9875 31.3625Q358.8781 30.065624 358.33124 29.409374Q357.4875 28.39375 356.14374 28.39375Q354.9406 28.39375 354.1125 29.20625Q353.28436 30.003124 353.1906 31.3625ZM362.15936 34.45625L363.90936 34.175Q364.05 35.221874 364.72186 35.784374Q365.39374 36.33125 366.59686 36.33125Q367.8 36.33125 368.3781 35.846874Q368.97186 35.346874 368.97186 34.690624Q368.97186 34.096874 368.45624 33.753124Q368.09686 33.51875 366.65936 33.159374Q364.72186 32.659374 363.97186 32.315624Q363.2375 31.95625 362.84686 31.33125Q362.45624 30.690624 362.45624 29.925Q362.45624 29.2375 362.76874 28.64375Q363.09686 28.05 363.64374 27.659374Q364.05 27.3625 364.7531 27.159374Q365.47186 26.940624 366.28436 26.940624Q367.5031 26.940624 368.425 27.3Q369.34686 27.64375 369.78436 28.253124Q370.22186 28.846874 370.39374 29.846874L368.675 30.08125Q368.55 29.284374 367.9875 28.846874Q367.425 28.39375 366.40936 28.39375Q365.1906 28.39375 364.675 28.8Q364.15936 29.190624 364.15936 29.721874Q364.15936 30.065624 364.3781 30.346874Q364.58124 30.628124 365.05 30.815624Q365.3156 30.909374 366.59686 31.253124Q368.47186 31.753124 369.20624 32.08125Q369.9406 32.39375 370.3625 33.003124Q370.78436 33.596874 370.78436 34.503124Q370.78436 35.378124 370.26874 36.159374Q369.7531 36.940624 368.78436 37.3625Q367.8156 37.784374 366.59686 37.784374Q364.58124 37.784374 363.51874 36.940624Q362.45624 36.096874 362.15936 34.45625ZM378.8625 41.51875L378.8625 27.175L380.47186 27.175L380.47186 28.51875Q381.03436 27.7375 381.7375 27.346874Q382.45624 26.940624 383.47186 26.940624Q384.8 26.940624 385.8156 27.628124Q386.83124 28.315624 387.34686 29.565624Q387.8781 30.8 387.8781 32.284374Q387.8781 33.878124 387.3 35.159374Q386.7375 36.425 385.64374 37.1125Q384.55 37.784374 383.34686 37.784374Q382.47186 37.784374 381.76874 37.409374Q381.08124 37.034374 380.6281 36.471874L380.6281 41.51875L378.8625 41.51875ZM380.45624 32.425Q380.45624 34.425 381.26874 35.378124Q382.08124 36.33125 383.2375 36.33125Q384.40936 36.33125 385.2375 35.346874Q386.08124 34.3625 386.08124 32.26875Q386.08124 30.3 385.2531 29.315624Q384.4406 28.315624 383.3156 28.315624Q382.1906 28.315624 381.3156 29.378124Q380.45624 30.425 380.45624 32.425ZM396.97186 34.20625L398.78436 34.440624Q398.3625 36.01875 397.1906 36.909374Q396.03436 37.784374 394.22186 37.784374Q391.95624 37.784374 390.6125 36.39375Q389.28436 34.9875 389.28436 32.45625Q389.28436 29.83125 390.6281 28.39375Q391.97186 26.940624 394.1281 26.940624Q396.20624 26.940624 397.51874 28.3625Q398.84686 29.76875 398.84686 32.346874Q398.84686 32.503124 398.83124 32.815624L391.09686 32.815624Q391.1906 34.51875 392.0656 35.425Q392.9406 36.33125 394.2375 36.33125Q395.20624 36.33125 395.8781 35.83125Q396.5656 35.315624 396.97186 34.20625ZM391.1906 31.3625L396.9875 31.3625Q396.8781 30.065624 396.33124 29.409374Q395.4875 28.39375 394.14374 28.39375Q392.9406 28.39375 392.1125 29.20625Q391.28436 30.003124 391.1906 31.3625ZM400.84686 37.55L400.84686 27.175L402.425 27.175L402.425 28.753124Q403.03436 27.64375 403.55 27.3Q404.0656 26.940624 404.675 26.940624Q405.5656 26.940624 406.4875 27.503124L405.8781 29.14375Q405.2375 28.753124 404.59686 28.753124Q404.01874 28.753124 403.55 29.1125Q403.09686 29.45625 402.89374 30.065624Q402.6125 31.003124 402.6125 32.1125L402.6125 37.55L400.84686 37.55ZM413.55 38.409374L415.2531 38.659374Q415.3625 39.45625 415.84686 39.815624Q416.5031 40.3 417.64374 40.3Q418.8625 40.3 419.51874 39.815624Q420.1906 39.33125 420.425 38.45625Q420.5656 37.909374 420.55 36.190624Q419.39374 37.55 417.675 37.55Q415.53436 37.55 414.3625 36.003124Q413.1906 34.45625 413.1906 32.3Q413.1906 30.815624 413.72186 29.565624Q414.26874 28.315624 415.28436 27.628124Q416.3156 26.940624 417.6906 26.940624Q419.51874 26.940624 420.72186 28.425L420.72186 27.175L422.33124 27.175L422.33124 36.14375Q422.33124 38.565624 421.83124 39.565624Q421.34686 40.58125 420.26874 41.159374Q419.20624 41.753124 417.64374 41.753124Q415.8 41.753124 414.64374 40.925Q413.5031 40.096874 413.55 38.409374ZM415.0031 32.175Q415.0031 34.221874 415.8156 35.159374Q416.6281 36.096874 417.84686 36.096874Q419.05 36.096874 419.8625 35.159374Q420.6906 34.221874 420.6906 32.2375Q420.6906 30.33125 419.84686 29.3625Q419.0031 28.39375 417.8156 28.39375Q416.64374 28.39375 415.8156 29.346874Q415.0031 30.3 415.0031 32.175ZM431.97186 34.20625L433.78436 34.440624Q433.3625 36.01875 432.1906 36.909374Q431.03436 37.784374 429.22186 37.784374Q426.95624 37.784374 425.6125 36.39375Q424.28436 34.9875 424.28436 32.45625Q424.28436 29.83125 425.6281 28.39375Q426.97186 26.940624 429.1281 26.940624Q431.20624 26.940624 432.51874 28.3625Q433.84686 29.76875 433.84686 32.346874Q433.84686 32.503124 433.83124 32.815624L426.09686 32.815624Q426.1906 34.51875 427.0656 35.425Q427.9406 36.33125 429.2375 36.33125Q430.20624 36.33125 430.8781 35.83125Q431.5656 35.315624 431.97186 34.20625ZM426.1906 31.3625L431.9875 31.3625Q431.8781 30.065624 431.33124 29.409374Q430.4875 28.39375 429.14374 28.39375Q427.9406 28.39375 427.1125 29.20625Q426.28436 30.003124 426.1906 31.3625ZM435.15936 34.45625L436.90936 34.175Q437.05 35.221874 437.72186 35.784374Q438.39374 36.33125 439.59686 36.33125Q440.8 36.33125 441.3781 35.846874Q441.97186 35.346874 441.97186 34.690624Q441.97186 34.096874 441.45624 33.753124Q441.09686 33.51875 439.65936 33.159374Q437.72186 32.659374 436.97186 32.315624Q436.2375 31.95625 435.84686 31.33125Q435.45624 30.690624 435.45624 29.925Q435.45624 29.2375 435.76874 28.64375Q436.09686 28.05 436.64374 27.659374Q437.05 27.3625 437.7531 27.159374Q438.47186 26.940624 439.28436 26.940624Q440.5031 26.940624 441.425 27.3Q442.34686 27.64375 442.78436 28.253124Q443.22186 28.846874 443.39374 29.846874L441.675 30.08125Q441.55 29.284374 440.9875 28.846874Q440.425 28.39375 439.40936 28.39375Q438.1906 28.39375 437.675 28.8Q437.15936 29.190624 437.15936 29.721874Q437.15936 30.065624 437.3781 30.346874Q437.58124 30.628124 438.05 30.815624Q438.3156 30.909374 439.59686 31.253124Q441.47186 31.753124 442.20624 32.08125Q442.9406 32.39375 443.3625 33.003124Q443.78436 33.596874 443.78436 34.503124Q443.78436 35.378124 443.26874 36.159374Q442.7531 36.940624 441.78436 37.3625Q440.8156 37.784374 439.59686 37.784374Q437.58124 37.784374 436.51874 36.940624Q435.45624 36.096874 435.15936 34.45625ZM445.83124 37.55L445.83124 23.2375L447.58124 23.2375L447.58124 37.55L445.83124 37.55ZM456.64374 36.26875Q455.65936 37.096874 454.7531 37.440624Q453.84686 37.784374 452.8156 37.784374Q451.1125 37.784374 450.1906 36.95625Q449.26874 36.1125 449.26874 34.815624Q449.26874 34.05 449.6125 33.425Q449.97186 32.8 450.53436 32.425Q451.09686 32.034374 451.8 31.83125Q452.3156 31.70625 453.3625 31.565624Q455.4875 31.315624 456.4875 30.971874Q456.5031 30.6125 456.5031 30.503124Q456.5031 29.440624 456.0031 28.9875Q455.33124 28.39375 454.0031 28.39375Q452.7531 28.39375 452.15936 28.83125Q451.58124 29.26875 451.3 30.378124L449.58124 30.14375Q449.8156 29.034374 450.34686 28.3625Q450.8781 27.675 451.89374 27.315624Q452.90936 26.940624 454.2531 26.940624Q455.58124 26.940624 456.40936 27.253124Q457.2375 27.565624 457.6281 28.05Q458.01874 28.51875 458.175 29.2375Q458.26874 29.690624 458.26874 30.8625L458.26874 33.20625Q458.26874 35.659374 458.3781 36.315624Q458.4875 36.95625 458.83124 37.55L456.9875 37.55Q456.72186 37.003124 456.64374 36.26875ZM456.4875 32.346874Q455.53436 32.7375 453.6125 33.003124Q452.53436 33.159374 452.08124 33.3625Q451.64374 33.55 451.39374 33.925Q451.14374 34.3 451.14374 34.76875Q451.14374 35.471874 451.675 35.940624Q452.20624 36.409374 453.2375 36.409374Q454.2531 36.409374 455.03436 35.971874Q455.83124 35.51875 456.20624 34.753124Q456.4875 34.14375 456.4875 32.9875L456.4875 32.346874ZM467.64374 33.753124L469.3625 33.971874Q469.08124 35.76875 467.90936 36.784374Q466.7531 37.784374 465.05 37.784374Q462.925 37.784374 461.6281 36.39375Q460.33124 35.003124 460.33124 32.409374Q460.33124 30.721874 460.8781 29.471874Q461.4406 28.20625 462.58124 27.58125Q463.72186 26.940624 465.0656 26.940624Q466.7531 26.940624 467.8156 27.8Q468.89374 28.659374 469.20624 30.221874L467.4875 30.4875Q467.2531 29.440624 466.6281 28.925Q466.0031 28.39375 465.1281 28.39375Q463.8 28.39375 462.97186 29.346874Q462.14374 30.3 462.14374 32.346874Q462.14374 34.440624 462.9406 35.39375Q463.7375 36.33125 465.03436 36.33125Q466.0656 36.33125 466.7531 35.70625Q467.45624 35.065624 467.64374 33.753124ZM470.8625 37.55L470.8625 23.2375L472.6281 23.2375L472.6281 28.3625Q473.8625 26.940624 475.7375 26.940624Q476.8781 26.940624 477.72186 27.39375Q478.58124 27.846874 478.9406 28.659374Q479.3156 29.45625 479.3156 30.971874L479.3156 37.55L477.5656 37.55L477.5656 30.971874Q477.5656 29.659374 476.9875 29.065624Q476.40936 28.45625 475.3781 28.45625Q474.59686 28.45625 473.89374 28.8625Q473.20624 29.26875 472.90936 29.971874Q472.6281 30.659374 472.6281 31.878124L472.6281 37.55L470.8625 37.55ZM484.70624 35.971874L484.95624 37.534374Q484.22186 37.690624 483.6281 37.690624Q482.675 37.690624 482.14374 37.39375Q481.6281 37.08125 481.40936 36.596874Q481.1906 36.096874 481.1906 34.51875L481.1906 28.55L479.90936 28.55L479.90936 27.175L481.1906 27.175L481.1906 24.6125L482.9406 23.55L482.9406 27.175L484.70624 27.175L484.70624 28.55L482.9406 28.55L482.9406 34.6125Q482.9406 35.3625 483.03436 35.58125Q483.1281 35.784374 483.33124 35.925Q483.55 36.05 483.9406 36.05Q484.22186 36.05 484.70624 35.971874Z" fill-rule="nonzero"/></svg>